G04*
G04 #@! TF.GenerationSoftware,Altium Limited,Altium Designer,23.9.2 (47)*
G04*
G04 Layer_Color=8388736*
%FSLAX42Y42*%
%MOMM*%
G71*
G04*
G04 #@! TF.SameCoordinates,880BC639-5831-4C0F-AB6A-F2B6842DEA92*
G04*
G04*
G04 #@! TF.FilePolarity,Negative*
G04*
G01*
G75*
G04:AMPARAMS|DCode=20|XSize=0.95mm|YSize=0.42mm|CornerRadius=0.11mm|HoleSize=0mm|Usage=FLASHONLY|Rotation=270.000|XOffset=0mm|YOffset=0mm|HoleType=Round|Shape=RoundedRectangle|*
%AMROUNDEDRECTD20*
21,1,0.95,0.20,0,0,270.0*
21,1,0.73,0.42,0,0,270.0*
1,1,0.22,-0.10,-0.37*
1,1,0.22,-0.10,0.37*
1,1,0.22,0.10,0.37*
1,1,0.22,0.10,-0.37*
%
%ADD20ROUNDEDRECTD20*%
%ADD21R,2.15X1.35*%
G04:AMPARAMS|DCode=22|XSize=1.35mm|YSize=1.05mm|CornerRadius=0.3mm|HoleSize=0mm|Usage=FLASHONLY|Rotation=0.000|XOffset=0mm|YOffset=0mm|HoleType=Round|Shape=RoundedRectangle|*
%AMROUNDEDRECTD22*
21,1,1.35,0.45,0,0,0.0*
21,1,0.75,1.05,0,0,0.0*
1,1,0.60,0.38,-0.23*
1,1,0.60,-0.38,-0.23*
1,1,0.60,-0.38,0.23*
1,1,0.60,0.38,0.23*
%
%ADD22ROUNDEDRECTD22*%
G04:AMPARAMS|DCode=23|XSize=1.35mm|YSize=1.05mm|CornerRadius=0.3mm|HoleSize=0mm|Usage=FLASHONLY|Rotation=270.000|XOffset=0mm|YOffset=0mm|HoleType=Round|Shape=RoundedRectangle|*
%AMROUNDEDRECTD23*
21,1,1.35,0.45,0,0,270.0*
21,1,0.75,1.05,0,0,270.0*
1,1,0.60,-0.23,-0.38*
1,1,0.60,-0.23,0.38*
1,1,0.60,0.23,0.38*
1,1,0.60,0.23,-0.38*
%
%ADD23ROUNDEDRECTD23*%
%ADD24R,0.83X0.62*%
G04:AMPARAMS|DCode=25|XSize=1.55mm|YSize=1.25mm|CornerRadius=0.35mm|HoleSize=0mm|Usage=FLASHONLY|Rotation=270.000|XOffset=0mm|YOffset=0mm|HoleType=Round|Shape=RoundedRectangle|*
%AMROUNDEDRECTD25*
21,1,1.55,0.55,0,0,270.0*
21,1,0.85,1.25,0,0,270.0*
1,1,0.70,-0.28,-0.43*
1,1,0.70,-0.28,0.43*
1,1,0.70,0.28,0.43*
1,1,0.70,0.28,-0.43*
%
%ADD25ROUNDEDRECTD25*%
G04:AMPARAMS|DCode=26|XSize=1.55mm|YSize=1.25mm|CornerRadius=0.35mm|HoleSize=0mm|Usage=FLASHONLY|Rotation=180.000|XOffset=0mm|YOffset=0mm|HoleType=Round|Shape=RoundedRectangle|*
%AMROUNDEDRECTD26*
21,1,1.55,0.55,0,0,180.0*
21,1,0.85,1.25,0,0,180.0*
1,1,0.70,-0.43,0.28*
1,1,0.70,0.43,0.28*
1,1,0.70,0.43,-0.28*
1,1,0.70,-0.43,-0.28*
%
%ADD26ROUNDEDRECTD26*%
G04:AMPARAMS|DCode=27|XSize=1.45mm|YSize=1.05mm|CornerRadius=0.3mm|HoleSize=0mm|Usage=FLASHONLY|Rotation=90.000|XOffset=0mm|YOffset=0mm|HoleType=Round|Shape=RoundedRectangle|*
%AMROUNDEDRECTD27*
21,1,1.45,0.45,0,0,90.0*
21,1,0.85,1.05,0,0,90.0*
1,1,0.60,0.23,0.43*
1,1,0.60,0.23,-0.43*
1,1,0.60,-0.23,-0.43*
1,1,0.60,-0.23,0.43*
%
%ADD27ROUNDEDRECTD27*%
%ADD28C,1.78*%
%ADD29C,1.95*%
G04:AMPARAMS|DCode=30|XSize=1.95mm|YSize=1.95mm|CornerRadius=0.53mm|HoleSize=0mm|Usage=FLASHONLY|Rotation=180.000|XOffset=0mm|YOffset=0mm|HoleType=Round|Shape=RoundedRectangle|*
%AMROUNDEDRECTD30*
21,1,1.95,0.90,0,0,180.0*
21,1,0.90,1.95,0,0,180.0*
1,1,1.05,-0.45,0.45*
1,1,1.05,0.45,0.45*
1,1,1.05,0.45,-0.45*
1,1,1.05,-0.45,-0.45*
%
%ADD30ROUNDEDRECTD30*%
D20*
X12401Y3841D02*
D03*
X12201Y3601D02*
D03*
X12351Y3841D02*
D03*
X12301D02*
D03*
X12251D02*
D03*
X12201D02*
D03*
X12251Y3601D02*
D03*
X12301D02*
D03*
X12351D02*
D03*
X12401D02*
D03*
D21*
X12301Y3721D02*
D03*
D22*
X12020Y3665D02*
D03*
Y3455D02*
D03*
X12220Y3125D02*
D03*
Y3335D02*
D03*
X12100Y5150D02*
D03*
Y4940D02*
D03*
X12320D02*
D03*
Y5150D02*
D03*
D23*
X12055Y3290D02*
D03*
X11845D02*
D03*
X12295Y4620D02*
D03*
X12085D02*
D03*
X11705Y4420D02*
D03*
X11915D02*
D03*
X11705Y4050D02*
D03*
X11915D02*
D03*
X12296Y4241D02*
D03*
X12086D02*
D03*
X12295Y4420D02*
D03*
X12085D02*
D03*
D24*
X11857Y4940D02*
D03*
Y4858D02*
D03*
X11690D02*
D03*
Y4940D02*
D03*
X12744Y4935D02*
D03*
Y4853D02*
D03*
X12576D02*
D03*
Y4935D02*
D03*
D25*
X12280Y4060D02*
D03*
X12100D02*
D03*
X11720Y4620D02*
D03*
X11900D02*
D03*
X12570Y4640D02*
D03*
X12750D02*
D03*
D26*
X11798Y3530D02*
D03*
Y3710D02*
D03*
D27*
X12580Y4060D02*
D03*
X12420D02*
D03*
X12540Y3350D02*
D03*
X12380D02*
D03*
D28*
X11774Y5065D02*
D03*
X12660Y5060D02*
D03*
D29*
X11808Y2920D02*
D03*
X12316D02*
D03*
X12570D02*
D03*
X12062D02*
D03*
X11554D02*
D03*
D30*
X12824D02*
D03*
M02*
