G04*
G04 #@! TF.GenerationSoftware,Altium Limited,Altium Designer,23.9.2 (47)*
G04*
G04 Layer_Color=8421504*
%FSLAX42Y42*%
%MOMM*%
G71*
G04*
G04 #@! TF.SameCoordinates,880BC639-5831-4C0F-AB6A-F2B6842DEA92*
G04*
G04*
G04 #@! TF.FilePolarity,Positive*
G04*
G01*
G75*
%ADD12C,0.40*%
G04:AMPARAMS|DCode=13|XSize=0.8mm|YSize=0.27mm|CornerRadius=0.03mm|HoleSize=0mm|Usage=FLASHONLY|Rotation=270.000|XOffset=0mm|YOffset=0mm|HoleType=Round|Shape=RoundedRectangle|*
%AMROUNDEDRECTD13*
21,1,0.80,0.20,0,0,270.0*
21,1,0.73,0.27,0,0,270.0*
1,1,0.07,-0.10,-0.37*
1,1,0.07,-0.10,0.37*
1,1,0.07,0.10,0.37*
1,1,0.07,0.10,-0.37*
%
%ADD13ROUNDEDRECTD13*%
G04:AMPARAMS|DCode=14|XSize=1.2mm|YSize=0.9mm|CornerRadius=0.23mm|HoleSize=0mm|Usage=FLASHONLY|Rotation=0.000|XOffset=0mm|YOffset=0mm|HoleType=Round|Shape=RoundedRectangle|*
%AMROUNDEDRECTD14*
21,1,1.20,0.45,0,0,0.0*
21,1,0.75,0.90,0,0,0.0*
1,1,0.45,0.38,-0.23*
1,1,0.45,-0.38,-0.23*
1,1,0.45,-0.38,0.23*
1,1,0.45,0.38,0.23*
%
%ADD14ROUNDEDRECTD14*%
G04:AMPARAMS|DCode=15|XSize=1.2mm|YSize=0.9mm|CornerRadius=0.23mm|HoleSize=0mm|Usage=FLASHONLY|Rotation=270.000|XOffset=0mm|YOffset=0mm|HoleType=Round|Shape=RoundedRectangle|*
%AMROUNDEDRECTD15*
21,1,1.20,0.45,0,0,270.0*
21,1,0.75,0.90,0,0,270.0*
1,1,0.45,-0.23,-0.38*
1,1,0.45,-0.23,0.38*
1,1,0.45,0.23,0.38*
1,1,0.45,0.23,-0.38*
%
%ADD15ROUNDEDRECTD15*%
%ADD16R,0.63X0.42*%
G04:AMPARAMS|DCode=17|XSize=1.4mm|YSize=1.1mm|CornerRadius=0.28mm|HoleSize=0mm|Usage=FLASHONLY|Rotation=270.000|XOffset=0mm|YOffset=0mm|HoleType=Round|Shape=RoundedRectangle|*
%AMROUNDEDRECTD17*
21,1,1.40,0.55,0,0,270.0*
21,1,0.85,1.10,0,0,270.0*
1,1,0.55,-0.28,-0.43*
1,1,0.55,-0.28,0.43*
1,1,0.55,0.28,0.43*
1,1,0.55,0.28,-0.43*
%
%ADD17ROUNDEDRECTD17*%
G04:AMPARAMS|DCode=18|XSize=1.4mm|YSize=1.1mm|CornerRadius=0.28mm|HoleSize=0mm|Usage=FLASHONLY|Rotation=180.000|XOffset=0mm|YOffset=0mm|HoleType=Round|Shape=RoundedRectangle|*
%AMROUNDEDRECTD18*
21,1,1.40,0.55,0,0,180.0*
21,1,0.85,1.10,0,0,180.0*
1,1,0.55,-0.43,0.28*
1,1,0.55,0.43,0.28*
1,1,0.55,0.43,-0.28*
1,1,0.55,-0.43,-0.28*
%
%ADD18ROUNDEDRECTD18*%
G04:AMPARAMS|DCode=19|XSize=1.3mm|YSize=0.9mm|CornerRadius=0.23mm|HoleSize=0mm|Usage=FLASHONLY|Rotation=90.000|XOffset=0mm|YOffset=0mm|HoleType=Round|Shape=RoundedRectangle|*
%AMROUNDEDRECTD19*
21,1,1.30,0.45,0,0,90.0*
21,1,0.85,0.90,0,0,90.0*
1,1,0.45,0.23,0.43*
1,1,0.45,0.23,-0.43*
1,1,0.45,-0.23,-0.43*
1,1,0.45,-0.23,0.43*
%
%ADD19ROUNDEDRECTD19*%
G36*
X11783Y5146D02*
X11787Y5145D01*
X11791Y5145D01*
X11795Y5144D01*
X11798Y5143D01*
X11802Y5141D01*
X11806Y5140D01*
X11809Y5138D01*
X11813Y5137D01*
X11816Y5135D01*
X11819Y5133D01*
X11822Y5130D01*
X11825Y5128D01*
X11828Y5125D01*
X11831Y5123D01*
X11834Y5120D01*
X11836Y5117D01*
X11839Y5114D01*
X11841Y5111D01*
X11843Y5108D01*
X11845Y5104D01*
X11847Y5101D01*
X11848Y5097D01*
X11850Y5094D01*
X11851Y5090D01*
X11852Y5086D01*
X11853Y5082D01*
X11854Y5079D01*
X11854Y5075D01*
X11855Y5070D01*
X11830D01*
X11829Y5073D01*
X11829Y5075D01*
X11829Y5078D01*
X11828Y5080D01*
X11827Y5083D01*
X11826Y5085D01*
X11825Y5088D01*
X11824Y5090D01*
X11823Y5092D01*
X11822Y5095D01*
X11820Y5097D01*
X11819Y5099D01*
X11817Y5101D01*
X11815Y5103D01*
X11814Y5105D01*
X11812Y5107D01*
X11810Y5108D01*
X11808Y5110D01*
X11805Y5112D01*
X11803Y5113D01*
X11801Y5114D01*
X11799Y5116D01*
X11796Y5117D01*
X11794Y5118D01*
X11791Y5119D01*
X11789Y5119D01*
X11786Y5120D01*
X11784Y5121D01*
X11781Y5121D01*
X11779Y5121D01*
Y5146D01*
X11783Y5146D01*
D02*
G37*
G36*
X11769Y5121D02*
X11766Y5121D01*
X11764Y5121D01*
X11761Y5120D01*
X11759Y5119D01*
X11756Y5119D01*
X11754Y5118D01*
X11751Y5117D01*
X11749Y5116D01*
X11746Y5114D01*
X11744Y5113D01*
X11742Y5112D01*
X11740Y5110D01*
X11738Y5108D01*
X11736Y5107D01*
X11734Y5105D01*
X11732Y5103D01*
X11730Y5101D01*
X11729Y5099D01*
X11727Y5097D01*
X11726Y5095D01*
X11725Y5092D01*
X11723Y5090D01*
X11722Y5088D01*
X11721Y5085D01*
X11720Y5083D01*
X11720Y5080D01*
X11719Y5078D01*
X11718Y5075D01*
X11718Y5073D01*
X11718Y5070D01*
X11693D01*
X11693Y5075D01*
X11694Y5079D01*
X11694Y5082D01*
X11695Y5086D01*
X11696Y5090D01*
X11698Y5094D01*
X11699Y5097D01*
X11701Y5101D01*
X11702Y5104D01*
X11704Y5108D01*
X11706Y5111D01*
X11709Y5114D01*
X11711Y5117D01*
X11714Y5120D01*
X11716Y5123D01*
X11719Y5125D01*
X11722Y5128D01*
X11725Y5130D01*
X11728Y5133D01*
X11731Y5135D01*
X11735Y5137D01*
X11738Y5138D01*
X11742Y5140D01*
X11745Y5141D01*
X11749Y5143D01*
X11753Y5144D01*
X11757Y5145D01*
X11760Y5145D01*
X11764Y5146D01*
X11769Y5146D01*
Y5121D01*
D02*
G37*
G36*
X12669Y5141D02*
X12673Y5140D01*
X12677Y5139D01*
X12681Y5138D01*
X12685Y5137D01*
X12688Y5136D01*
X12692Y5135D01*
X12695Y5133D01*
X12699Y5131D01*
X12702Y5129D01*
X12706Y5127D01*
X12709Y5125D01*
X12712Y5123D01*
X12715Y5120D01*
X12718Y5117D01*
X12720Y5115D01*
X12723Y5112D01*
X12725Y5109D01*
X12727Y5106D01*
X12729Y5102D01*
X12731Y5099D01*
X12733Y5095D01*
X12735Y5092D01*
X12736Y5088D01*
X12737Y5085D01*
X12739Y5081D01*
X12739Y5077D01*
X12740Y5073D01*
X12741Y5069D01*
X12741Y5065D01*
X12716D01*
X12716Y5067D01*
X12715Y5070D01*
X12715Y5073D01*
X12714Y5075D01*
X12713Y5078D01*
X12712Y5080D01*
X12711Y5083D01*
X12710Y5085D01*
X12709Y5087D01*
X12708Y5090D01*
X12706Y5092D01*
X12705Y5094D01*
X12703Y5096D01*
X12702Y5098D01*
X12700Y5100D01*
X12698Y5102D01*
X12696Y5103D01*
X12694Y5105D01*
X12692Y5106D01*
X12689Y5108D01*
X12687Y5109D01*
X12685Y5110D01*
X12683Y5112D01*
X12680Y5112D01*
X12678Y5113D01*
X12675Y5114D01*
X12673Y5115D01*
X12670Y5115D01*
X12668Y5116D01*
X12665Y5116D01*
Y5141D01*
X12669Y5141D01*
D02*
G37*
G36*
X12655Y5116D02*
X12653Y5116D01*
X12650Y5115D01*
X12647Y5115D01*
X12645Y5114D01*
X12642Y5113D01*
X12640Y5112D01*
X12637Y5112D01*
X12635Y5110D01*
X12633Y5109D01*
X12631Y5108D01*
X12628Y5106D01*
X12626Y5105D01*
X12624Y5103D01*
X12622Y5102D01*
X12620Y5100D01*
X12618Y5098D01*
X12617Y5096D01*
X12615Y5094D01*
X12614Y5092D01*
X12612Y5090D01*
X12611Y5087D01*
X12610Y5085D01*
X12608Y5083D01*
X12607Y5080D01*
X12607Y5078D01*
X12606Y5075D01*
X12605Y5073D01*
X12605Y5070D01*
X12604Y5067D01*
X12604Y5065D01*
X12579D01*
X12579Y5069D01*
X12580Y5073D01*
X12581Y5077D01*
X12582Y5081D01*
X12583Y5085D01*
X12584Y5088D01*
X12585Y5092D01*
X12587Y5095D01*
X12589Y5099D01*
X12591Y5102D01*
X12593Y5106D01*
X12595Y5109D01*
X12597Y5112D01*
X12600Y5115D01*
X12603Y5117D01*
X12605Y5120D01*
X12608Y5123D01*
X12611Y5125D01*
X12614Y5127D01*
X12618Y5129D01*
X12621Y5131D01*
X12625Y5133D01*
X12628Y5135D01*
X12632Y5136D01*
X12635Y5137D01*
X12639Y5138D01*
X12643Y5139D01*
X12647Y5140D01*
X12650Y5141D01*
X12655Y5141D01*
Y5116D01*
D02*
G37*
G36*
X11854Y5056D02*
X11854Y5052D01*
X11853Y5048D01*
X11852Y5044D01*
X11851Y5040D01*
X11850Y5037D01*
X11848Y5033D01*
X11847Y5030D01*
X11845Y5026D01*
X11843Y5023D01*
X11841Y5020D01*
X11839Y5017D01*
X11836Y5013D01*
X11834Y5011D01*
X11831Y5008D01*
X11828Y5005D01*
X11825Y5003D01*
X11822Y5000D01*
X11819Y4998D01*
X11816Y4996D01*
X11813Y4994D01*
X11809Y4992D01*
X11806Y4990D01*
X11802Y4989D01*
X11798Y4988D01*
X11795Y4987D01*
X11791Y4986D01*
X11787Y4985D01*
X11783Y4985D01*
X11779Y4984D01*
Y5009D01*
Y5009D01*
X11781Y5010D01*
X11784Y5010D01*
X11786Y5010D01*
X11789Y5011D01*
X11791Y5012D01*
X11794Y5013D01*
X11796Y5014D01*
X11799Y5015D01*
X11801Y5016D01*
X11803Y5017D01*
X11805Y5019D01*
X11808Y5020D01*
X11810Y5022D01*
X11812Y5024D01*
X11814Y5025D01*
X11815Y5027D01*
X11817Y5029D01*
X11819Y5031D01*
X11820Y5033D01*
X11822Y5036D01*
X11823Y5038D01*
X11824Y5040D01*
X11825Y5043D01*
X11826Y5045D01*
X11827Y5047D01*
X11828Y5050D01*
X11829Y5053D01*
X11829Y5055D01*
X11829Y5058D01*
X11830Y5060D01*
X11855D01*
X11854Y5056D01*
D02*
G37*
G36*
X11718Y5058D02*
X11718Y5055D01*
X11719Y5053D01*
X11720Y5050D01*
X11720Y5047D01*
X11721Y5045D01*
X11722Y5043D01*
X11723Y5040D01*
X11725Y5038D01*
X11726Y5036D01*
X11727Y5033D01*
X11729Y5031D01*
X11730Y5029D01*
X11732Y5027D01*
X11734Y5025D01*
X11736Y5024D01*
X11738Y5022D01*
X11740Y5020D01*
X11742Y5019D01*
X11744Y5017D01*
X11746Y5016D01*
X11749Y5015D01*
X11751Y5014D01*
X11754Y5013D01*
X11756Y5012D01*
X11759Y5011D01*
X11761Y5010D01*
X11764Y5010D01*
X11766Y5010D01*
X11769Y5009D01*
Y4984D01*
X11764Y4985D01*
X11760Y4985D01*
X11757Y4986D01*
X11753Y4987D01*
X11749Y4988D01*
X11745Y4989D01*
X11742Y4990D01*
X11738Y4992D01*
X11735Y4994D01*
X11731Y4996D01*
X11728Y4998D01*
X11725Y5000D01*
X11722Y5003D01*
X11719Y5005D01*
X11716Y5008D01*
X11714Y5011D01*
X11711Y5013D01*
X11709Y5017D01*
X11706Y5020D01*
X11704Y5023D01*
X11702Y5026D01*
X11701Y5030D01*
X11699Y5033D01*
X11698Y5037D01*
X11696Y5040D01*
X11695Y5044D01*
X11694Y5048D01*
X11694Y5052D01*
X11693Y5056D01*
X11693Y5060D01*
X11718D01*
X11718Y5058D01*
D02*
G37*
G36*
X12741Y5051D02*
X12740Y5047D01*
X12739Y5043D01*
X12739Y5039D01*
X12737Y5035D01*
X12736Y5032D01*
X12735Y5028D01*
X12733Y5025D01*
X12731Y5021D01*
X12729Y5018D01*
X12727Y5015D01*
X12725Y5011D01*
X12723Y5008D01*
X12720Y5005D01*
X12718Y5003D01*
X12715Y5000D01*
X12712Y4997D01*
X12709Y4995D01*
X12706Y4993D01*
X12702Y4991D01*
X12699Y4989D01*
X12695Y4987D01*
X12692Y4985D01*
X12688Y4984D01*
X12685Y4983D01*
X12681Y4981D01*
X12677Y4981D01*
X12673Y4980D01*
X12669Y4979D01*
X12665Y4979D01*
Y5004D01*
Y5004D01*
X12668Y5004D01*
X12670Y5005D01*
X12673Y5005D01*
X12675Y5006D01*
X12678Y5007D01*
X12680Y5008D01*
X12683Y5008D01*
X12685Y5010D01*
X12687Y5011D01*
X12689Y5012D01*
X12692Y5014D01*
X12694Y5015D01*
X12696Y5017D01*
X12698Y5018D01*
X12700Y5020D01*
X12702Y5022D01*
X12703Y5024D01*
X12705Y5026D01*
X12706Y5028D01*
X12708Y5031D01*
X12709Y5033D01*
X12710Y5035D01*
X12711Y5037D01*
X12712Y5040D01*
X12713Y5042D01*
X12714Y5045D01*
X12715Y5047D01*
X12715Y5050D01*
X12716Y5053D01*
X12716Y5055D01*
X12741D01*
X12741Y5051D01*
D02*
G37*
G36*
X12604Y5053D02*
X12605Y5050D01*
X12605Y5047D01*
X12606Y5045D01*
X12607Y5042D01*
X12607Y5040D01*
X12608Y5037D01*
X12610Y5035D01*
X12611Y5033D01*
X12612Y5031D01*
X12614Y5028D01*
X12615Y5026D01*
X12617Y5024D01*
X12618Y5022D01*
X12620Y5020D01*
X12622Y5018D01*
X12624Y5017D01*
X12626Y5015D01*
X12628Y5014D01*
X12631Y5012D01*
X12633Y5011D01*
X12635Y5010D01*
X12637Y5008D01*
X12640Y5008D01*
X12642Y5007D01*
X12645Y5006D01*
X12647Y5005D01*
X12650Y5005D01*
X12653Y5004D01*
X12655Y5004D01*
Y4979D01*
X12650Y4979D01*
X12647Y4980D01*
X12643Y4981D01*
X12639Y4981D01*
X12635Y4983D01*
X12632Y4984D01*
X12628Y4985D01*
X12625Y4987D01*
X12621Y4989D01*
X12618Y4991D01*
X12614Y4993D01*
X12611Y4995D01*
X12608Y4997D01*
X12605Y5000D01*
X12603Y5003D01*
X12600Y5005D01*
X12597Y5008D01*
X12595Y5011D01*
X12593Y5015D01*
X12591Y5018D01*
X12589Y5021D01*
X12587Y5025D01*
X12585Y5028D01*
X12584Y5032D01*
X12583Y5035D01*
X12582Y5039D01*
X12581Y5043D01*
X12580Y5047D01*
X12579Y5051D01*
X12579Y5055D01*
X12604D01*
X12604Y5053D01*
D02*
G37*
G36*
X12364Y3683D02*
X12238D01*
Y3759D01*
X12364D01*
Y3683D01*
D02*
G37*
D12*
X11835Y5065D02*
G03*
X11835Y5065I-61J0D01*
G01*
X12721Y5060D02*
G03*
X12721Y5060I-61J0D01*
G01*
D13*
X12401Y3841D02*
D03*
X12201Y3601D02*
D03*
X12351Y3841D02*
D03*
X12301D02*
D03*
X12251D02*
D03*
X12201D02*
D03*
X12251Y3601D02*
D03*
X12301D02*
D03*
X12351D02*
D03*
X12401D02*
D03*
D14*
X12020Y3665D02*
D03*
Y3455D02*
D03*
X12220Y3125D02*
D03*
Y3335D02*
D03*
X12100Y5150D02*
D03*
Y4940D02*
D03*
X12320D02*
D03*
Y5150D02*
D03*
D15*
X12055Y3290D02*
D03*
X11845D02*
D03*
X12295Y4620D02*
D03*
X12085D02*
D03*
X11705Y4420D02*
D03*
X11915D02*
D03*
X11705Y4050D02*
D03*
X11915D02*
D03*
X12296Y4241D02*
D03*
X12086D02*
D03*
X12295Y4420D02*
D03*
X12085D02*
D03*
D16*
X11857Y4940D02*
D03*
Y4858D02*
D03*
X11690D02*
D03*
Y4940D02*
D03*
X12744Y4935D02*
D03*
Y4853D02*
D03*
X12576D02*
D03*
Y4935D02*
D03*
D17*
X12280Y4060D02*
D03*
X12100D02*
D03*
X11720Y4620D02*
D03*
X11900D02*
D03*
X12570Y4640D02*
D03*
X12750D02*
D03*
D18*
X11798Y3530D02*
D03*
Y3710D02*
D03*
D19*
X12580Y4060D02*
D03*
X12420D02*
D03*
X12540Y3350D02*
D03*
X12380D02*
D03*
M02*
