G04*
G04 #@! TF.GenerationSoftware,Altium Limited,Altium Designer,23.9.2 (47)*
G04*
G04 Layer_Physical_Order=1*
G04 Layer_Color=255*
%FSLAX42Y42*%
%MOMM*%
G71*
G04*
G04 #@! TF.SameCoordinates,3F524FC0-4B6B-4256-A14D-B08FAE234F2F*
G04*
G04*
G04 #@! TF.FilePolarity,Positive*
G04*
G01*
G75*
%ADD12C,0.40*%
G04:AMPARAMS|DCode=13|XSize=0.8mm|YSize=0.27mm|CornerRadius=0.03mm|HoleSize=0mm|Usage=FLASHONLY|Rotation=270.000|XOffset=0mm|YOffset=0mm|HoleType=Round|Shape=RoundedRectangle|*
%AMROUNDEDRECTD13*
21,1,0.80,0.20,0,0,270.0*
21,1,0.73,0.27,0,0,270.0*
1,1,0.07,-0.10,-0.37*
1,1,0.07,-0.10,0.37*
1,1,0.07,0.10,0.37*
1,1,0.07,0.10,-0.37*
%
%ADD13ROUNDEDRECTD13*%
G04:AMPARAMS|DCode=14|XSize=1.2mm|YSize=0.9mm|CornerRadius=0.23mm|HoleSize=0mm|Usage=FLASHONLY|Rotation=0.000|XOffset=0mm|YOffset=0mm|HoleType=Round|Shape=RoundedRectangle|*
%AMROUNDEDRECTD14*
21,1,1.20,0.45,0,0,0.0*
21,1,0.75,0.90,0,0,0.0*
1,1,0.45,0.38,-0.23*
1,1,0.45,-0.38,-0.23*
1,1,0.45,-0.38,0.23*
1,1,0.45,0.38,0.23*
%
%ADD14ROUNDEDRECTD14*%
G04:AMPARAMS|DCode=15|XSize=1.2mm|YSize=0.9mm|CornerRadius=0.23mm|HoleSize=0mm|Usage=FLASHONLY|Rotation=270.000|XOffset=0mm|YOffset=0mm|HoleType=Round|Shape=RoundedRectangle|*
%AMROUNDEDRECTD15*
21,1,1.20,0.45,0,0,270.0*
21,1,0.75,0.90,0,0,270.0*
1,1,0.45,-0.23,-0.38*
1,1,0.45,-0.23,0.38*
1,1,0.45,0.23,0.38*
1,1,0.45,0.23,-0.38*
%
%ADD15ROUNDEDRECTD15*%
G04:AMPARAMS|DCode=17|XSize=1.4mm|YSize=1.1mm|CornerRadius=0.28mm|HoleSize=0mm|Usage=FLASHONLY|Rotation=270.000|XOffset=0mm|YOffset=0mm|HoleType=Round|Shape=RoundedRectangle|*
%AMROUNDEDRECTD17*
21,1,1.40,0.55,0,0,270.0*
21,1,0.85,1.10,0,0,270.0*
1,1,0.55,-0.28,-0.43*
1,1,0.55,-0.28,0.43*
1,1,0.55,0.28,0.43*
1,1,0.55,0.28,-0.43*
%
%ADD17ROUNDEDRECTD17*%
G04:AMPARAMS|DCode=18|XSize=1.4mm|YSize=1.1mm|CornerRadius=0.28mm|HoleSize=0mm|Usage=FLASHONLY|Rotation=180.000|XOffset=0mm|YOffset=0mm|HoleType=Round|Shape=RoundedRectangle|*
%AMROUNDEDRECTD18*
21,1,1.40,0.55,0,0,180.0*
21,1,0.85,1.10,0,0,180.0*
1,1,0.55,-0.43,0.28*
1,1,0.55,0.43,0.28*
1,1,0.55,0.43,-0.28*
1,1,0.55,-0.43,-0.28*
%
%ADD18ROUNDEDRECTD18*%
G04:AMPARAMS|DCode=19|XSize=1.3mm|YSize=0.9mm|CornerRadius=0.23mm|HoleSize=0mm|Usage=FLASHONLY|Rotation=90.000|XOffset=0mm|YOffset=0mm|HoleType=Round|Shape=RoundedRectangle|*
%AMROUNDEDRECTD19*
21,1,1.30,0.45,0,0,90.0*
21,1,0.85,0.90,0,0,90.0*
1,1,0.45,0.23,0.43*
1,1,0.45,0.23,-0.43*
1,1,0.45,-0.23,-0.43*
1,1,0.45,-0.23,0.43*
%
%ADD19ROUNDEDRECTD19*%
%ADD31R,2.00X1.20*%
%ADD32R,0.73X0.52*%
%ADD33C,0.10*%
%ADD34C,0.52*%
%ADD35C,0.50*%
%ADD36C,0.60*%
%ADD37C,0.27*%
%ADD38C,0.30*%
%ADD39C,0.80*%
%ADD40C,1.63*%
%ADD41C,1.80*%
G04:AMPARAMS|DCode=42|XSize=1.8mm|YSize=1.8mm|CornerRadius=0.45mm|HoleSize=0mm|Usage=FLASHONLY|Rotation=180.000|XOffset=0mm|YOffset=0mm|HoleType=Round|Shape=RoundedRectangle|*
%AMROUNDEDRECTD42*
21,1,1.80,0.90,0,0,180.0*
21,1,0.90,1.80,0,0,180.0*
1,1,0.90,-0.45,0.45*
1,1,0.90,0.45,0.45*
1,1,0.90,0.45,-0.45*
1,1,0.90,-0.45,-0.45*
%
%ADD42ROUNDEDRECTD42*%
G36*
X12794Y5125D02*
Y4986D01*
X12793Y4985D01*
X12744D01*
X12735Y4981D01*
X12688D01*
Y4889D01*
Y4806D01*
X12735D01*
X12744Y4803D01*
X12910D01*
X12920Y4798D01*
X12958Y4814D01*
X12974Y4853D01*
X13000Y4850D01*
Y2780D01*
X12523D01*
X12522Y2784D01*
X12544Y2810D01*
X12616D01*
X12680Y2874D01*
Y2966D01*
X12616Y3030D01*
X12537D01*
X12500Y3067D01*
Y3799D01*
X12501Y3802D01*
Y3926D01*
X12501Y3926D01*
X12502Y3928D01*
Y4180D01*
X12500Y4184D01*
Y4200D01*
X12370Y4330D01*
X12245D01*
Y4540D01*
Y4769D01*
X12247Y4770D01*
X12349D01*
X12472Y4648D01*
X12491Y4640D01*
Y4597D01*
X12506Y4561D01*
X12543Y4546D01*
X12597D01*
X12634Y4561D01*
X12649Y4597D01*
Y4683D01*
X12634Y4719D01*
X12626Y4722D01*
Y4806D01*
X12632D01*
Y4889D01*
Y4981D01*
X12585D01*
X12576Y4985D01*
X12526D01*
X12425Y5085D01*
X12392Y5099D01*
X12404Y5128D01*
Y5147D01*
X12407Y5150D01*
X12769D01*
X12794Y5125D01*
D02*
G37*
G36*
X11920Y5169D02*
Y5081D01*
X11935Y5045D01*
X11965Y5015D01*
X12001Y5000D01*
X12018D01*
X12027Y4987D01*
X12016Y4962D01*
Y4922D01*
X12016Y4921D01*
Y4909D01*
X12015Y4908D01*
X11857D01*
X11848Y4904D01*
X11801D01*
Y4812D01*
X11848D01*
X11857Y4808D01*
X12036D01*
X12071Y4823D01*
X12101Y4853D01*
X12109Y4871D01*
X12130D01*
Y4590D01*
X11994D01*
X11959Y4575D01*
X11899Y4515D01*
X11894Y4504D01*
X11893D01*
X11860Y4490D01*
X11846Y4458D01*
Y4383D01*
X11860Y4350D01*
X11865Y4348D01*
Y4124D01*
X11863Y4121D01*
X11860Y4120D01*
X11846Y4088D01*
Y4085D01*
X11846Y4084D01*
X11846Y4083D01*
Y4012D01*
X11860Y3980D01*
X11893Y3966D01*
X11938D01*
X11970Y3980D01*
X11984Y4012D01*
Y4088D01*
X11970Y4120D01*
X11965Y4122D01*
Y4348D01*
X11970Y4350D01*
X11984Y4383D01*
Y4438D01*
X11984Y4439D01*
Y4459D01*
X12006Y4482D01*
X12013Y4481D01*
X12021Y4468D01*
X12016Y4458D01*
Y4383D01*
X12030Y4350D01*
X12036Y4347D01*
Y4314D01*
X12031Y4311D01*
X12017Y4279D01*
Y4204D01*
X12031Y4171D01*
X12037Y4169D01*
Y4139D01*
X12036Y4139D01*
X12021Y4103D01*
Y4017D01*
X12036Y3981D01*
X12073Y3966D01*
X12075D01*
Y3964D01*
X12080Y3952D01*
X12073Y3942D01*
X11762D01*
Y3984D01*
X11774Y4012D01*
Y4088D01*
X11760Y4120D01*
X11728Y4134D01*
X11682D01*
X11650Y4120D01*
X11636Y4088D01*
Y4012D01*
X11650Y3980D01*
X11664Y3974D01*
Y3913D01*
X11631Y3880D01*
X11598D01*
Y4890D01*
X11634D01*
Y4812D01*
X11641D01*
Y4663D01*
X11641Y4662D01*
Y4578D01*
X11656Y4541D01*
X11656Y4541D01*
Y4493D01*
X11650Y4490D01*
X11636Y4458D01*
Y4383D01*
X11650Y4350D01*
X11682Y4336D01*
X11728D01*
X11760Y4350D01*
X11774Y4383D01*
Y4458D01*
X11760Y4490D01*
X11754Y4493D01*
Y4529D01*
X11784Y4541D01*
X11799Y4578D01*
Y4662D01*
X11784Y4699D01*
X11747Y4714D01*
X11739D01*
Y4812D01*
X11746D01*
Y4894D01*
Y4986D01*
X11699D01*
X11690Y4990D01*
X11598D01*
Y5147D01*
X11621Y5170D01*
X11919D01*
X11920Y5169D01*
D02*
G37*
G36*
X12355Y4305D02*
X12480Y4180D01*
Y3928D01*
X12480Y3926D01*
Y3926D01*
D01*
Y3910D01*
Y3802D01*
X12337D01*
Y3963D01*
X12225Y4075D01*
Y4305D01*
X12355Y4305D01*
D02*
G37*
G36*
X12470Y3050D02*
X12380D01*
X12337Y3093D01*
Y3486D01*
X12337Y3486D01*
X12337Y3486D01*
Y3601D01*
X12337Y3602D01*
Y3641D01*
X12470D01*
Y3050D01*
D02*
G37*
D12*
X11878Y3828D02*
X12106D01*
X12173Y3761D01*
X12229D01*
X12081Y3410D02*
X12145D01*
X12182Y3360D02*
X12206Y3335D01*
X12145Y3410D02*
X12182Y3373D01*
Y3360D02*
Y3373D01*
X12206Y3335D02*
X12220D01*
X12020Y3455D02*
X12036D01*
X12081Y3410D01*
X12380Y3228D02*
Y3341D01*
Y3110D02*
Y3228D01*
X12100Y5274D02*
X12110Y5284D01*
X12824Y2920D02*
Y3057D01*
X12541Y3249D02*
X12710Y3080D01*
X12801D01*
X12824Y3057D01*
X11798Y3710D02*
X11802D01*
X11836Y3744D02*
Y3786D01*
X11802Y3710D02*
X11836Y3744D01*
Y3786D02*
X11878Y3828D01*
X12580Y4060D02*
Y4230D01*
Y4039D02*
Y4060D01*
X12251Y3772D02*
X12301Y3721D01*
X12245Y3777D02*
X12251Y3772D01*
X12229Y3761D02*
X12245Y3777D01*
X12380Y3350D02*
Y3515D01*
X12540Y3350D02*
X12541Y3349D01*
Y3249D02*
Y3349D01*
X12540Y3350D02*
Y3721D01*
Y3721D02*
X12580Y3761D01*
Y4039D01*
X12750Y4400D02*
Y4520D01*
X12580Y4230D02*
X12750Y4400D01*
X12295Y4520D02*
Y4620D01*
X12750Y4520D02*
Y4640D01*
X12295Y4480D02*
Y4520D01*
X12750D01*
X12295Y4480D02*
X12295Y4480D01*
X12295Y4420D02*
Y4480D01*
X11870Y4579D02*
Y4710D01*
X11900Y4620D02*
X12085D01*
X11690Y4650D02*
X11720Y4620D01*
X11774Y4806D02*
Y4942D01*
Y5065D01*
Y4942D02*
X11776Y4940D01*
X12723Y4667D02*
Y4727D01*
Y4667D02*
X12750Y4640D01*
X12660Y4790D02*
X12723Y4727D01*
X12660Y4790D02*
Y5060D01*
X11774Y4806D02*
X11870Y4710D01*
D13*
X12401Y3841D02*
D03*
X12201Y3601D02*
D03*
X12351Y3841D02*
D03*
X12301D02*
D03*
X12251D02*
D03*
X12201D02*
D03*
X12251Y3601D02*
D03*
X12301D02*
D03*
X12351D02*
D03*
X12401D02*
D03*
D14*
X12020Y3665D02*
D03*
Y3455D02*
D03*
X12220Y3125D02*
D03*
Y3335D02*
D03*
X12100Y5150D02*
D03*
Y4940D02*
D03*
X12320D02*
D03*
Y5150D02*
D03*
D15*
X12055Y3290D02*
D03*
X11845D02*
D03*
X12295Y4670D02*
D03*
X12085D02*
D03*
X11705Y4420D02*
D03*
X11915D02*
D03*
X11915Y4050D02*
D03*
X11705D02*
D03*
X12296Y4241D02*
D03*
X12086D02*
D03*
X12295Y4420D02*
D03*
X12085D02*
D03*
D17*
X12280Y4060D02*
D03*
X12100D02*
D03*
X11720Y4620D02*
D03*
X11900D02*
D03*
X12570Y4640D02*
D03*
X12750D02*
D03*
D18*
X11798Y3530D02*
D03*
Y3710D02*
D03*
D19*
X12580Y4060D02*
D03*
X12420D02*
D03*
X12540Y3350D02*
D03*
X12380D02*
D03*
D31*
X12301Y3721D02*
D03*
D32*
X11857Y4940D02*
D03*
Y4858D02*
D03*
X11690D02*
D03*
Y4940D02*
D03*
X12744Y4935D02*
D03*
Y4853D02*
D03*
X12576D02*
D03*
Y4935D02*
D03*
D33*
X11360Y2730D02*
X13060D01*
X11360Y5380D02*
X13060D01*
Y2730D02*
Y5380D01*
X11360Y2730D02*
Y5380D01*
D34*
X11896Y4084D02*
X11915Y4103D01*
Y4420D01*
X12400Y4060D02*
X12420D01*
X12744Y4935D02*
X12813D01*
X12844Y4965D01*
Y5146D01*
X12790Y5200D02*
X12844Y5146D01*
X12744Y4853D02*
X12920D01*
X12345Y5159D02*
Y5160D01*
X11915Y4420D02*
X11934Y4439D01*
Y4480D02*
X11994Y4540D01*
X12195D01*
X11934Y4439D02*
Y4480D01*
X12195Y4540D02*
Y4789D01*
Y4298D02*
Y4540D01*
X12570Y4640D02*
Y4654D01*
X12507Y4683D02*
X12541D01*
X12570Y4654D01*
X12320Y4820D02*
X12370D01*
X12507Y4683D01*
X12195Y4789D02*
X12226Y4820D01*
X12320D02*
Y4940D01*
X12226Y4820D02*
X12320D01*
X12576Y4646D02*
Y4853D01*
X11970Y5081D02*
Y5189D01*
X12390Y5050D02*
X12505Y4935D01*
X11970Y5081D02*
X12001Y5050D01*
X12390D01*
X11939Y5220D02*
X11970Y5189D01*
X11600Y5220D02*
X11939D01*
X11548Y5168D02*
X11600Y5220D01*
X12100Y5150D02*
Y5274D01*
X12345Y5160D02*
X12354Y5169D01*
X11548Y4940D02*
Y5168D01*
X12386Y5200D02*
X12790D01*
X12354Y5169D02*
X12355D01*
X12386Y5200D01*
X11548Y4940D02*
X11690D01*
X11548Y4908D02*
Y4940D01*
X12066Y4921D02*
X12085Y4940D01*
X12100D01*
X11857Y4858D02*
X12036D01*
X12066Y4888D01*
Y4921D01*
X12296Y4241D02*
Y4248D01*
X12225Y4268D02*
X12276D01*
X12296Y4248D01*
X12195Y4298D02*
X12225Y4268D01*
X11548Y3180D02*
Y4908D01*
Y3180D02*
X11808Y2920D01*
X12379Y3933D02*
X12400Y3954D01*
X12312Y4232D02*
X12384D01*
X12379Y3933D02*
X12401Y3912D01*
X12384Y4232D02*
X12414Y4203D01*
Y4066D02*
Y4203D01*
Y4066D02*
X12420Y4060D01*
X12280D02*
X12400D01*
X12401Y3841D02*
Y3912D01*
X12400Y3954D02*
Y4040D01*
X12420Y4060D01*
X12505Y4935D02*
X12576D01*
X12570Y4640D02*
X12576Y4646D01*
D35*
X11713Y3893D02*
X12106D01*
X11713D02*
Y4050D01*
X11628Y3808D02*
X11713Y3893D01*
X11628Y3312D02*
Y3808D01*
X12102Y3228D02*
X12380D01*
X12055Y3276D02*
X12102Y3228D01*
X12085Y4242D02*
Y4420D01*
X11628Y3312D02*
X11974Y2966D01*
X12086Y4074D02*
Y4241D01*
X11690Y4650D02*
Y4858D01*
X11705Y4605D02*
X11720Y4620D01*
X11705Y4420D02*
Y4605D01*
X12086Y4074D02*
X12100Y4060D01*
D36*
X12920Y4853D02*
Y5195D01*
X12815Y5300D02*
X12920Y5195D01*
X11572Y5300D02*
X12815D01*
X11468Y5196D02*
X11572Y5300D01*
X11468Y3015D02*
Y5196D01*
X12380Y3110D02*
X12570Y2920D01*
X12030D02*
X12062D01*
X11983Y2966D02*
X12030Y2920D01*
X11974Y2966D02*
X11983D01*
X11554Y2920D02*
Y2929D01*
X11468Y3015D02*
X11554Y2929D01*
X12220Y3016D02*
Y3125D01*
Y3016D02*
X12316Y2920D01*
D37*
X12201Y3841D02*
Y3877D01*
X12185Y3893D02*
X12201Y3877D01*
X12106Y3893D02*
X12185D01*
X12055Y3276D02*
Y3290D01*
X12070Y3550D02*
X12150Y3470D01*
X12278D01*
X12301Y3493D01*
X12251Y3540D02*
Y3601D01*
X12171Y3524D02*
X12235D01*
X12251Y3540D01*
X12301Y3493D02*
Y3601D01*
X12030Y3665D02*
X12171Y3524D01*
X11850Y3550D02*
X12070D01*
X12020Y3665D02*
X12030D01*
X12100Y4060D02*
X12111Y4049D01*
Y3964D02*
Y4049D01*
Y3964D02*
X12127Y3949D01*
X12261D01*
X11830Y3530D02*
X11850Y3550D01*
X12251Y3772D02*
Y3815D01*
Y3768D02*
Y3772D01*
X12380Y3341D02*
Y3350D01*
X12261Y3949D02*
X12301Y3909D01*
Y3841D02*
Y3909D01*
X12351Y3553D02*
X12376Y3528D01*
X12351Y3553D02*
Y3601D01*
X12375Y3531D02*
X12386Y3540D01*
X12401Y3555D02*
Y3601D01*
X12385Y3539D02*
X12401Y3555D01*
X12251Y3815D02*
X12251Y3815D01*
Y3841D01*
D38*
X11693Y3357D02*
Y3602D01*
Y3357D02*
X11730Y3320D01*
X11816D01*
X11845Y3290D02*
Y3291D01*
X11816Y3320D02*
X11845Y3291D01*
X12080Y3760D02*
X12140Y3700D01*
X11913Y3638D02*
Y3742D01*
X11930Y3760D01*
X12080D01*
X12140Y3624D02*
Y3700D01*
X11895Y3620D02*
X11913Y3638D01*
X11711Y3620D02*
X11895D01*
X11693Y3602D02*
X11711Y3620D01*
X12158Y3606D02*
X12199D01*
X12140Y3624D02*
X12158Y3606D01*
D39*
X12301Y3721D02*
X12540D01*
D40*
X11774Y5065D02*
D03*
X12660Y5060D02*
D03*
D41*
X11808Y2920D02*
D03*
X12316D02*
D03*
X12570D02*
D03*
X12062D02*
D03*
X11554D02*
D03*
D42*
X12824D02*
D03*
M02*
