G04*
G04 #@! TF.GenerationSoftware,Altium Limited,Altium Designer,23.9.2 (47)*
G04*
G04 Layer_Physical_Order=1*
G04 Layer_Color=255*
%FSLAX42Y42*%
%MOMM*%
G71*
G04*
G04 #@! TF.SameCoordinates,880BC639-5831-4C0F-AB6A-F2B6842DEA92*
G04*
G04*
G04 #@! TF.FilePolarity,Positive*
G04*
G01*
G75*
%ADD12C,0.40*%
G04:AMPARAMS|DCode=13|XSize=0.8mm|YSize=0.27mm|CornerRadius=0.03mm|HoleSize=0mm|Usage=FLASHONLY|Rotation=270.000|XOffset=0mm|YOffset=0mm|HoleType=Round|Shape=RoundedRectangle|*
%AMROUNDEDRECTD13*
21,1,0.80,0.20,0,0,270.0*
21,1,0.73,0.27,0,0,270.0*
1,1,0.07,-0.10,-0.37*
1,1,0.07,-0.10,0.37*
1,1,0.07,0.10,0.37*
1,1,0.07,0.10,-0.37*
%
%ADD13ROUNDEDRECTD13*%
G04:AMPARAMS|DCode=14|XSize=1.2mm|YSize=0.9mm|CornerRadius=0.23mm|HoleSize=0mm|Usage=FLASHONLY|Rotation=0.000|XOffset=0mm|YOffset=0mm|HoleType=Round|Shape=RoundedRectangle|*
%AMROUNDEDRECTD14*
21,1,1.20,0.45,0,0,0.0*
21,1,0.75,0.90,0,0,0.0*
1,1,0.45,0.38,-0.23*
1,1,0.45,-0.38,-0.23*
1,1,0.45,-0.38,0.23*
1,1,0.45,0.38,0.23*
%
%ADD14ROUNDEDRECTD14*%
G04:AMPARAMS|DCode=15|XSize=1.2mm|YSize=0.9mm|CornerRadius=0.23mm|HoleSize=0mm|Usage=FLASHONLY|Rotation=270.000|XOffset=0mm|YOffset=0mm|HoleType=Round|Shape=RoundedRectangle|*
%AMROUNDEDRECTD15*
21,1,1.20,0.45,0,0,270.0*
21,1,0.75,0.90,0,0,270.0*
1,1,0.45,-0.23,-0.38*
1,1,0.45,-0.23,0.38*
1,1,0.45,0.23,0.38*
1,1,0.45,0.23,-0.38*
%
%ADD15ROUNDEDRECTD15*%
G04:AMPARAMS|DCode=17|XSize=1.4mm|YSize=1.1mm|CornerRadius=0.28mm|HoleSize=0mm|Usage=FLASHONLY|Rotation=270.000|XOffset=0mm|YOffset=0mm|HoleType=Round|Shape=RoundedRectangle|*
%AMROUNDEDRECTD17*
21,1,1.40,0.55,0,0,270.0*
21,1,0.85,1.10,0,0,270.0*
1,1,0.55,-0.28,-0.43*
1,1,0.55,-0.28,0.43*
1,1,0.55,0.28,0.43*
1,1,0.55,0.28,-0.43*
%
%ADD17ROUNDEDRECTD17*%
G04:AMPARAMS|DCode=18|XSize=1.4mm|YSize=1.1mm|CornerRadius=0.28mm|HoleSize=0mm|Usage=FLASHONLY|Rotation=180.000|XOffset=0mm|YOffset=0mm|HoleType=Round|Shape=RoundedRectangle|*
%AMROUNDEDRECTD18*
21,1,1.40,0.55,0,0,180.0*
21,1,0.85,1.10,0,0,180.0*
1,1,0.55,-0.43,0.28*
1,1,0.55,0.43,0.28*
1,1,0.55,0.43,-0.28*
1,1,0.55,-0.43,-0.28*
%
%ADD18ROUNDEDRECTD18*%
G04:AMPARAMS|DCode=19|XSize=1.3mm|YSize=0.9mm|CornerRadius=0.23mm|HoleSize=0mm|Usage=FLASHONLY|Rotation=90.000|XOffset=0mm|YOffset=0mm|HoleType=Round|Shape=RoundedRectangle|*
%AMROUNDEDRECTD19*
21,1,1.30,0.45,0,0,90.0*
21,1,0.85,0.90,0,0,90.0*
1,1,0.45,0.23,0.43*
1,1,0.45,0.23,-0.43*
1,1,0.45,-0.23,-0.43*
1,1,0.45,-0.23,0.43*
%
%ADD19ROUNDEDRECTD19*%
%ADD31R,2.00X1.20*%
%ADD32R,0.73X0.52*%
%ADD33C,0.10*%
%ADD34C,0.27*%
%ADD35C,0.60*%
%ADD36C,0.30*%
%ADD37C,0.50*%
%ADD38C,0.38*%
%ADD39C,1.63*%
%ADD40C,1.80*%
G04:AMPARAMS|DCode=41|XSize=1.8mm|YSize=1.8mm|CornerRadius=0.45mm|HoleSize=0mm|Usage=FLASHONLY|Rotation=180.000|XOffset=0mm|YOffset=0mm|HoleType=Round|Shape=RoundedRectangle|*
%AMROUNDEDRECTD41*
21,1,1.80,0.90,0,0,180.0*
21,1,0.90,1.80,0,0,180.0*
1,1,0.90,-0.45,0.45*
1,1,0.90,0.45,0.45*
1,1,0.90,0.45,-0.45*
1,1,0.90,-0.45,-0.45*
%
%ADD41ROUNDEDRECTD41*%
G36*
X12120Y5227D02*
X12121Y5220D01*
X12122Y5214D01*
X12123Y5209D01*
X12125Y5205D01*
X12127Y5201D01*
X12130Y5198D01*
X12133Y5196D01*
X12136Y5195D01*
X12140Y5194D01*
X12060D01*
X12064Y5195D01*
X12067Y5196D01*
X12070Y5198D01*
X12073Y5201D01*
X12075Y5205D01*
X12077Y5209D01*
X12078Y5214D01*
X12079Y5220D01*
X12080Y5227D01*
X12080Y5235D01*
X12120D01*
X12120Y5227D01*
D02*
G37*
G36*
X12375Y5185D02*
X12376Y5184D01*
X12378Y5183D01*
X12380Y5182D01*
X12383Y5181D01*
X12387Y5180D01*
X12391Y5179D01*
X12402Y5179D01*
X12409Y5179D01*
Y5139D01*
X12403Y5139D01*
X12394Y5138D01*
X12390Y5137D01*
X12387Y5137D01*
X12384Y5136D01*
X12382Y5134D01*
X12381Y5133D01*
X12380Y5132D01*
X12380Y5130D01*
X12374Y5187D01*
X12375Y5185D01*
D02*
G37*
G36*
X12780Y4961D02*
X12732D01*
X12734Y4961D01*
X12735Y4962D01*
X12736Y4963D01*
X12737Y4965D01*
X12738Y4968D01*
X12739Y4971D01*
X12739Y4974D01*
X12740Y4978D01*
X12740Y4989D01*
X12780D01*
X12780Y4961D01*
D02*
G37*
G36*
X11601Y4991D02*
X11602Y4986D01*
X11604Y4980D01*
X11606Y4974D01*
X11610Y4970D01*
X11614Y4966D01*
X11620Y4964D01*
X11626Y4962D01*
X11631Y4961D01*
X11644Y4961D01*
X11648Y4962D01*
X11650Y4963D01*
X11652Y4964D01*
X11654Y4965D01*
X11654Y4966D01*
Y4960D01*
X11662Y4960D01*
Y4920D01*
X11654Y4920D01*
Y4914D01*
X11654Y4915D01*
X11652Y4916D01*
X11650Y4917D01*
X11648Y4918D01*
X11644Y4919D01*
X11640Y4919D01*
X11634Y4919D01*
X11601Y4919D01*
Y4947D01*
X11580Y4940D01*
X11587Y4961D01*
X11559D01*
X11559Y4962D01*
X11559Y4964D01*
X11560Y4972D01*
X11560Y5022D01*
X11600D01*
X11601Y4991D01*
D02*
G37*
G36*
X12540Y4909D02*
X12540Y4910D01*
X12539Y4911D01*
X12537Y4912D01*
X12535Y4913D01*
X12532Y4913D01*
X12528Y4914D01*
X12518Y4915D01*
X12505Y4915D01*
Y4955D01*
X12512Y4955D01*
X12532Y4956D01*
X12535Y4957D01*
X12537Y4958D01*
X12539Y4959D01*
X12540Y4959D01*
X12540Y4961D01*
Y4909D01*
D02*
G37*
G36*
X12871Y4880D02*
X12870Y4880D01*
X12868Y4878D01*
X12866Y4876D01*
X12853Y4865D01*
X12826Y4838D01*
X12812Y4852D01*
Y4832D01*
X12806Y4832D01*
X12788Y4831D01*
X12785Y4830D01*
X12783Y4829D01*
X12781Y4829D01*
X12780Y4828D01*
X12780Y4827D01*
Y4878D01*
X12780Y4877D01*
X12781Y4876D01*
X12783Y4875D01*
X12785Y4874D01*
X12788Y4873D01*
X12791Y4873D01*
X12795Y4872D01*
X12803Y4872D01*
X12840Y4911D01*
X12871Y4880D01*
D02*
G37*
G36*
X11894Y4882D02*
X11895Y4882D01*
X11897Y4881D01*
X11900Y4880D01*
X11903Y4879D01*
X11908Y4879D01*
X11919Y4878D01*
X11933Y4878D01*
Y4838D01*
X11926Y4838D01*
X11903Y4836D01*
X11900Y4836D01*
X11897Y4835D01*
X11895Y4834D01*
X11894Y4833D01*
X11893Y4832D01*
Y4884D01*
X11894Y4882D01*
D02*
G37*
G36*
X13000Y2780D02*
X11430D01*
Y2850D01*
X11457Y2861D01*
X11508Y2810D01*
X11600D01*
X11664Y2874D01*
Y2924D01*
X11691Y2939D01*
X11698Y2934D01*
Y2874D01*
X11762Y2810D01*
X11854D01*
X11918Y2874D01*
Y2886D01*
X11945Y2902D01*
X11952Y2897D01*
Y2874D01*
X12016Y2810D01*
X12108D01*
X12172Y2874D01*
Y2924D01*
X12199Y2939D01*
X12206Y2934D01*
Y2874D01*
X12270Y2810D01*
X12362D01*
X12426Y2874D01*
Y2966D01*
X12362Y3030D01*
X12305D01*
X12286Y3054D01*
X12290Y3070D01*
X12304Y3102D01*
Y3148D01*
X12296Y3167D01*
X12310Y3191D01*
X12334Y3193D01*
X12337Y3190D01*
X12349Y3159D01*
X12501Y3008D01*
Y3006D01*
X12460Y2966D01*
Y2874D01*
X12524Y2810D01*
X12616D01*
X12680Y2874D01*
Y2966D01*
X12616Y3030D01*
X12586D01*
X12575Y3057D01*
X12423Y3208D01*
Y3270D01*
X12435Y3275D01*
X12449Y3308D01*
Y3392D01*
X12435Y3425D01*
X12423Y3430D01*
Y3515D01*
X12426Y3529D01*
X12437Y3555D01*
X12437Y3555D01*
Y3601D01*
X12436Y3603D01*
Y3638D01*
X12429Y3656D01*
X12411Y3663D01*
X12391D01*
X12376Y3657D01*
X12361Y3663D01*
X12341D01*
X12326Y3657D01*
X12311Y3663D01*
X12291D01*
X12276Y3657D01*
X12261Y3663D01*
X12241D01*
X12226Y3657D01*
X12211Y3663D01*
X12191D01*
X12178Y3672D01*
Y3716D01*
X12167Y3743D01*
X12167Y3743D01*
X12113Y3797D01*
X12086Y3808D01*
X12086Y3808D01*
X11984D01*
X11957Y3797D01*
X11957Y3797D01*
X11886Y3726D01*
X11875Y3699D01*
X11875Y3699D01*
Y3658D01*
X11711D01*
X11711Y3658D01*
X11709Y3657D01*
X11682Y3675D01*
Y3796D01*
X11731Y3844D01*
X12106D01*
X12121Y3842D01*
X12147Y3832D01*
X12165D01*
Y3805D01*
X12173Y3787D01*
X12186Y3781D01*
X12201Y3781D01*
Y3779D01*
X12211D01*
X12229Y3787D01*
X12236Y3805D01*
Y3839D01*
X12237Y3841D01*
Y3862D01*
X12251Y3875D01*
X12252Y3876D01*
X12263Y3879D01*
X12264Y3878D01*
Y3841D01*
X12265Y3839D01*
Y3805D01*
X12273Y3787D01*
X12291Y3779D01*
X12311D01*
X12326Y3786D01*
X12341Y3779D01*
X12361D01*
X12376Y3786D01*
X12391Y3779D01*
X12411D01*
X12429Y3787D01*
X12436Y3805D01*
Y3839D01*
X12437Y3841D01*
Y3912D01*
X12432Y3925D01*
X12443Y3954D01*
Y3972D01*
X12475Y3985D01*
X12489Y4017D01*
Y4103D01*
X12475Y4135D01*
X12462Y4140D01*
Y4203D01*
X12448Y4237D01*
X12419Y4266D01*
X12384Y4281D01*
X12363D01*
X12351Y4311D01*
X12318Y4325D01*
X12273D01*
X12271Y4324D01*
X12244Y4342D01*
Y4515D01*
Y4689D01*
X12245Y4690D01*
X12371D01*
X12438Y4623D01*
X12473Y4609D01*
X12491D01*
Y4597D01*
X12506Y4561D01*
X12543Y4546D01*
X12597D01*
X12634Y4561D01*
X12649Y4597D01*
Y4683D01*
X12634Y4719D01*
X12621Y4724D01*
X12620Y4726D01*
X12620Y4729D01*
Y4806D01*
X12620Y4806D01*
X12633D01*
X12634Y4827D01*
X12634Y4828D01*
X12634Y4830D01*
X12632Y4832D01*
Y4889D01*
Y4981D01*
X12547D01*
X12547Y4981D01*
X12543Y4981D01*
X12540Y4982D01*
X12537Y4981D01*
X12520D01*
X12431Y5071D01*
X12410Y5079D01*
X12399Y5087D01*
X12399Y5088D01*
X12409Y5115D01*
X12439Y5128D01*
X12461Y5150D01*
X12680D01*
X12738Y5092D01*
Y5028D01*
X12729Y5019D01*
X12717Y4989D01*
Y4981D01*
X12688D01*
Y4889D01*
Y4806D01*
X12773D01*
X12773Y4806D01*
X12776Y4806D01*
X12776Y4806D01*
X12780Y4805D01*
X12800Y4806D01*
X12812Y4808D01*
X12842Y4821D01*
X12882Y4861D01*
X12908Y4872D01*
X12924Y4910D01*
Y5245D01*
X12924Y5245D01*
X12908Y5283D01*
X12908Y5283D01*
X12878Y5313D01*
X12885Y5338D01*
X12887Y5340D01*
X13000D01*
Y2780D01*
D02*
G37*
G36*
X11723Y4832D02*
X11720Y4830D01*
X11718Y4828D01*
X11716Y4826D01*
X11714Y4822D01*
X11713Y4818D01*
X11711Y4812D01*
X11711Y4806D01*
X11710Y4800D01*
X11710Y4792D01*
X11670D01*
X11670Y4800D01*
X11669Y4812D01*
X11667Y4818D01*
X11666Y4822D01*
X11664Y4826D01*
X11662Y4828D01*
X11660Y4830D01*
X11657Y4832D01*
X11654Y4832D01*
X11726D01*
X11723Y4832D01*
D02*
G37*
G36*
X12540Y4827D02*
X12612D01*
X12609Y4826D01*
X12606Y4825D01*
X12604Y4823D01*
X12602Y4820D01*
X12600Y4817D01*
X12599Y4812D01*
X12598Y4807D01*
X12597Y4801D01*
X12596Y4794D01*
X12596Y4787D01*
X12556D01*
X12556Y4794D01*
X12555Y4807D01*
X12554Y4812D01*
X12552Y4817D01*
X12551Y4820D01*
X12548Y4823D01*
X12546Y4825D01*
X12543Y4826D01*
X12540Y4827D01*
X12540Y4828D01*
X12539Y4829D01*
X12537Y4830D01*
X12534Y4831D01*
X12530Y4831D01*
X12526Y4832D01*
X12515Y4832D01*
X12500Y4833D01*
Y4873D01*
X12508Y4873D01*
X12530Y4874D01*
X12534Y4875D01*
X12537Y4875D01*
X12539Y4876D01*
X12540Y4877D01*
X12540Y4878D01*
Y4827D01*
D02*
G37*
G36*
X12596Y4741D02*
X12597Y4733D01*
X12598Y4726D01*
X12599Y4720D01*
X12601Y4715D01*
X12603Y4711D01*
X12606Y4707D01*
X12609Y4705D01*
X12612Y4703D01*
X12616Y4702D01*
X12536Y4709D01*
X12540Y4709D01*
X12543Y4710D01*
X12546Y4712D01*
X12549Y4715D01*
X12551Y4718D01*
X12553Y4723D01*
X12554Y4728D01*
X12555Y4735D01*
X12556Y4742D01*
X12556Y4750D01*
X12596D01*
X12596Y4741D01*
D02*
G37*
G36*
X11710Y4721D02*
X11711Y4714D01*
X11712Y4707D01*
X11713Y4701D01*
X11715Y4697D01*
X11717Y4693D01*
X11720Y4691D01*
X11723Y4690D01*
X11726Y4689D01*
X11730Y4690D01*
X11666Y4670D01*
X11667Y4672D01*
X11667Y4675D01*
X11668Y4678D01*
X11669Y4686D01*
X11670Y4697D01*
X11670Y4718D01*
X11710Y4730D01*
X11710Y4721D01*
D02*
G37*
G36*
X12515Y4615D02*
X12515Y4618D01*
X12514Y4621D01*
X12512Y4624D01*
X12509Y4626D01*
X12505Y4628D01*
X12501Y4630D01*
X12495Y4631D01*
X12488Y4632D01*
X12481Y4632D01*
X12473Y4632D01*
Y4683D01*
X12482Y4683D01*
X12497Y4684D01*
X12503Y4685D01*
X12509Y4687D01*
X12513Y4689D01*
X12517Y4691D01*
X12520Y4694D01*
X12521Y4697D01*
X12522Y4700D01*
X12515Y4615D01*
D02*
G37*
G36*
X11755Y4551D02*
X11750Y4552D01*
X11746Y4551D01*
X11742Y4548D01*
X11739Y4545D01*
X11736Y4540D01*
X11734Y4535D01*
X11732Y4528D01*
X11731Y4520D01*
X11731Y4514D01*
X11731Y4505D01*
X11732Y4498D01*
X11733Y4492D01*
X11735Y4487D01*
X11737Y4482D01*
X11739Y4479D01*
X11741Y4476D01*
X11744Y4474D01*
X11666D01*
X11669Y4476D01*
X11671Y4479D01*
X11673Y4482D01*
X11675Y4487D01*
X11677Y4492D01*
X11678Y4498D01*
X11679Y4505D01*
X11680Y4516D01*
X11678Y4535D01*
X11677Y4541D01*
X11676Y4547D01*
X11674Y4552D01*
X11673Y4557D01*
X11671Y4561D01*
X11669Y4564D01*
X11755Y4551D01*
D02*
G37*
G36*
X11981Y4476D02*
X11976Y4470D01*
X11966Y4459D01*
X11963Y4454D01*
X11960Y4450D01*
X11959Y4446D01*
X11958Y4442D01*
X11958Y4439D01*
X11958Y4436D01*
X11960Y4434D01*
X11922Y4480D01*
X11924Y4478D01*
X11927Y4477D01*
X11930Y4477D01*
X11933Y4478D01*
X11937Y4479D01*
X11941Y4482D01*
X11946Y4485D01*
X11951Y4489D01*
X11963Y4500D01*
X11981Y4476D01*
D02*
G37*
G36*
X12220Y4515D02*
X12170Y4450D01*
X12170Y4460D01*
X12169Y4468D01*
X12168Y4476D01*
X12166Y4482D01*
X12163Y4488D01*
X12160Y4492D01*
X12156Y4496D01*
X12151Y4498D01*
X12146Y4499D01*
X12144Y4500D01*
X12125Y4500D01*
Y4530D01*
X12148Y4531D01*
X12151Y4532D01*
X12156Y4535D01*
X12160Y4538D01*
X12163Y4542D01*
X12166Y4548D01*
X12168Y4554D01*
X12169Y4562D01*
X12170Y4571D01*
X12170Y4580D01*
X12220Y4515D01*
D02*
G37*
G36*
X12115Y4362D02*
X12110Y4362D01*
X12106Y4361D01*
X12102Y4359D01*
X12099Y4355D01*
X12096Y4351D01*
X12094Y4345D01*
X12092Y4338D01*
X12091Y4331D01*
X12092Y4323D01*
X12094Y4316D01*
X12096Y4311D01*
X12099Y4306D01*
X12102Y4303D01*
X12106Y4301D01*
X12110Y4300D01*
X12115Y4300D01*
X12042Y4288D01*
X12042Y4288D01*
X12042Y4289D01*
X12041Y4292D01*
X12041Y4302D01*
X12040Y4332D01*
X12040Y4332D01*
X12040Y4337D01*
X12040Y4351D01*
X12041D01*
X12042Y4374D01*
X12115Y4362D01*
D02*
G37*
G36*
X11919Y5063D02*
X11919Y5063D01*
X11922Y5048D01*
X11931Y5035D01*
X11955Y5011D01*
X11955Y5011D01*
X11968Y5002D01*
X11983Y4999D01*
X12021D01*
X12027Y4987D01*
X12022Y4979D01*
X12019Y4962D01*
Y4917D01*
X12020Y4911D01*
X12013Y4899D01*
X11917D01*
X11914Y4899D01*
Y4904D01*
X11895D01*
X11894Y4904D01*
X11894Y4904D01*
X11894D01*
X11893Y4904D01*
X11893Y4904D01*
X11801D01*
Y4812D01*
X11893D01*
X11893Y4812D01*
X11894Y4812D01*
X11894D01*
X11894Y4812D01*
X11895Y4812D01*
X11914D01*
Y4817D01*
X11921Y4817D01*
X12039D01*
X12039Y4817D01*
X12054Y4820D01*
X12068Y4829D01*
X12091Y4852D01*
X12091Y4852D01*
X12100Y4866D01*
X12101Y4874D01*
X12138D01*
X12154Y4877D01*
X12168Y4887D01*
X12178Y4901D01*
X12181Y4917D01*
Y4962D01*
X12178Y4979D01*
X12173Y4987D01*
X12179Y4999D01*
X12210D01*
Y4782D01*
X12207Y4781D01*
X12192Y4771D01*
X12163Y4742D01*
X12153Y4727D01*
X12150Y4709D01*
Y4570D01*
X12149Y4565D01*
X12148Y4560D01*
X12147Y4556D01*
X12145Y4553D01*
X12144Y4552D01*
X12144Y4551D01*
X12131Y4551D01*
X11999D01*
X11986Y4548D01*
X11974Y4540D01*
X11943Y4510D01*
X11938Y4505D01*
X11934Y4501D01*
X11933Y4501D01*
X11893D01*
X11876Y4498D01*
X11862Y4488D01*
X11852Y4474D01*
X11849Y4458D01*
Y4383D01*
X11852Y4366D01*
X11862Y4352D01*
X11864Y4351D01*
X11864Y4350D01*
X11865Y4349D01*
X11866Y4347D01*
X11867Y4343D01*
X11868Y4339D01*
X11868Y4333D01*
X11869Y4324D01*
Y4288D01*
X11867Y4286D01*
X11760D01*
X11742Y4282D01*
X11728Y4272D01*
X11673Y4217D01*
X11663Y4203D01*
X11659Y4185D01*
Y4146D01*
X11658Y4137D01*
X11658Y4131D01*
X11657Y4127D01*
X11656Y4123D01*
X11655Y4121D01*
X11654Y4120D01*
X11654Y4119D01*
X11652Y4118D01*
X11642Y4104D01*
X11639Y4088D01*
Y4030D01*
X11599D01*
Y4887D01*
X11611Y4899D01*
X11621Y4899D01*
X11624Y4898D01*
X11634Y4886D01*
Y4832D01*
X11634Y4832D01*
X11634Y4832D01*
Y4812D01*
X11648D01*
X11648Y4809D01*
X11649Y4801D01*
Y4697D01*
X11649Y4688D01*
X11648Y4681D01*
X11648Y4681D01*
X11647Y4677D01*
X11647Y4676D01*
X11647Y4675D01*
X11646Y4673D01*
X11646Y4671D01*
X11646Y4671D01*
X11644Y4662D01*
Y4578D01*
X11648Y4559D01*
X11651Y4554D01*
X11652Y4553D01*
X11653Y4550D01*
X11654Y4549D01*
X11655Y4546D01*
X11656Y4542D01*
X11657Y4538D01*
X11658Y4533D01*
X11659Y4516D01*
Y4516D01*
X11658Y4507D01*
X11658Y4501D01*
X11657Y4497D01*
X11656Y4493D01*
X11655Y4491D01*
X11654Y4490D01*
X11654Y4489D01*
X11652Y4488D01*
X11642Y4474D01*
X11639Y4458D01*
Y4383D01*
X11642Y4366D01*
X11652Y4352D01*
X11666Y4342D01*
X11682Y4339D01*
X11728D01*
X11744Y4342D01*
X11758Y4352D01*
X11768Y4366D01*
X11771Y4383D01*
Y4458D01*
X11768Y4474D01*
X11758Y4488D01*
X11756Y4489D01*
X11756Y4490D01*
X11755Y4491D01*
X11754Y4493D01*
X11753Y4497D01*
X11752Y4501D01*
X11752Y4507D01*
X11751Y4514D01*
X11751Y4517D01*
X11752Y4524D01*
X11753Y4528D01*
X11754Y4530D01*
X11766Y4533D01*
X11782Y4543D01*
X11792Y4559D01*
X11796Y4578D01*
Y4662D01*
X11792Y4681D01*
X11782Y4697D01*
X11766Y4707D01*
X11747Y4711D01*
X11732D01*
X11732Y4711D01*
X11731Y4716D01*
X11731Y4720D01*
Y4802D01*
X11731Y4804D01*
X11732Y4809D01*
X11732Y4812D01*
X11746D01*
Y4832D01*
X11746Y4832D01*
X11746Y4832D01*
Y4894D01*
Y4975D01*
X11743Y4981D01*
X11740Y4986D01*
X11740Y4986D01*
X11654D01*
X11654Y4986D01*
X11654Y4986D01*
X11654D01*
X11653Y4986D01*
X11653Y4986D01*
X11634D01*
Y4986D01*
X11622Y4989D01*
X11621Y4991D01*
X11621Y4993D01*
X11621Y5003D01*
Y5153D01*
X11637Y5169D01*
X11919D01*
Y5063D01*
D02*
G37*
G36*
X11951Y4364D02*
X11949Y4361D01*
X11947Y4358D01*
X11945Y4353D01*
X11943Y4348D01*
X11942Y4342D01*
X11941Y4335D01*
X11940Y4319D01*
X11940Y4310D01*
X11890D01*
X11890Y4319D01*
X11889Y4335D01*
X11888Y4342D01*
X11887Y4348D01*
X11885Y4353D01*
X11883Y4358D01*
X11881Y4361D01*
X11879Y4364D01*
X11876Y4366D01*
X11954D01*
X11951Y4364D01*
D02*
G37*
G36*
X12251Y4242D02*
X12251Y4243D01*
X12250Y4243D01*
X12249Y4243D01*
X12242Y4243D01*
X12225Y4243D01*
Y4293D01*
X12257Y4294D01*
X12251Y4242D01*
D02*
G37*
G36*
X12341Y4272D02*
X12342Y4269D01*
X12344Y4266D01*
X12347Y4264D01*
X12351Y4262D01*
X12356Y4260D01*
X12361Y4259D01*
X12368Y4258D01*
X12376Y4257D01*
X12384Y4257D01*
Y4207D01*
X12375Y4207D01*
X12359Y4205D01*
X12353Y4204D01*
X12348Y4202D01*
X12343Y4200D01*
X12340Y4198D01*
X12337Y4195D01*
X12335Y4192D01*
X12335Y4189D01*
X12341Y4275D01*
X12341Y4272D01*
D02*
G37*
G36*
X12331Y4185D02*
X12328Y4182D01*
X12325Y4178D01*
X12322Y4174D01*
X12320Y4170D01*
X12319Y4165D01*
X12317Y4160D01*
X12317Y4155D01*
X12317Y4150D01*
X12318Y4145D01*
X12320Y4139D01*
X12321Y4134D01*
X12323Y4129D01*
X12326Y4125D01*
X12328Y4120D01*
X12331Y4116D01*
X12256Y4130D01*
X12260Y4129D01*
X12263Y4130D01*
X12266Y4132D01*
X12269Y4134D01*
X12271Y4138D01*
X12273Y4142D01*
X12274Y4148D01*
X12275Y4154D01*
X12275Y4154D01*
X12274Y4160D01*
X12273Y4165D01*
X12271Y4170D01*
X12269Y4174D01*
X12267Y4178D01*
X12264Y4182D01*
X12261Y4185D01*
X12257Y4188D01*
X12334D01*
X12331Y4185D01*
D02*
G37*
G36*
X12122Y4186D02*
X12119Y4183D01*
X12117Y4179D01*
X12116Y4175D01*
X12114Y4169D01*
X12113Y4163D01*
X12112Y4158D01*
X12113Y4152D01*
X12115Y4145D01*
X12117Y4139D01*
X12120Y4135D01*
X12123Y4131D01*
X12127Y4129D01*
X12131Y4128D01*
X12136Y4128D01*
X12049Y4116D01*
X12051Y4120D01*
X12053Y4124D01*
X12055Y4128D01*
X12056Y4133D01*
X12058Y4139D01*
X12059Y4146D01*
X12060Y4154D01*
X12060Y4157D01*
X12059Y4163D01*
X12057Y4169D01*
X12056Y4175D01*
X12054Y4179D01*
X12052Y4183D01*
X12050Y4186D01*
X12047Y4188D01*
X12124D01*
X12122Y4186D01*
D02*
G37*
G36*
X11730Y4151D02*
X11731Y4135D01*
X11732Y4128D01*
X11733Y4122D01*
X11735Y4117D01*
X11737Y4112D01*
X11739Y4109D01*
X11741Y4106D01*
X11744Y4104D01*
X11666D01*
X11669Y4106D01*
X11671Y4109D01*
X11673Y4112D01*
X11675Y4117D01*
X11677Y4122D01*
X11678Y4128D01*
X11679Y4135D01*
X11680Y4151D01*
X11680Y4160D01*
X11730D01*
X11730Y4151D01*
D02*
G37*
G36*
X12377Y4085D02*
X12385Y4085D01*
Y4035D01*
X12377Y4035D01*
Y4010D01*
X12376Y4015D01*
X12375Y4019D01*
X12372Y4023D01*
X12368Y4026D01*
X12364Y4029D01*
X12358Y4031D01*
X12355Y4032D01*
X12352Y4031D01*
X12346Y4029D01*
X12342Y4026D01*
X12338Y4023D01*
X12336Y4019D01*
X12334Y4015D01*
X12334Y4010D01*
Y4035D01*
X12325Y4035D01*
Y4085D01*
X12334Y4085D01*
Y4110D01*
X12334Y4105D01*
X12336Y4101D01*
X12338Y4097D01*
X12342Y4094D01*
X12346Y4091D01*
X12352Y4089D01*
X12355Y4088D01*
X12358Y4089D01*
X12364Y4091D01*
X12368Y4094D01*
X12372Y4097D01*
X12375Y4101D01*
X12376Y4105D01*
X12377Y4110D01*
Y4085D01*
D02*
G37*
G36*
X12440Y3995D02*
X12436Y3996D01*
X12433Y3995D01*
X12430Y3993D01*
X12427Y3991D01*
X12425Y3987D01*
X12423Y3983D01*
X12422Y3977D01*
X12421Y3971D01*
X12420Y3963D01*
X12420Y3955D01*
X12380Y3964D01*
X12380Y3971D01*
X12378Y4005D01*
X12377Y4007D01*
X12377Y4009D01*
X12440Y3995D01*
D02*
G37*
G36*
X12135Y3992D02*
X12133Y3991D01*
X12131Y3990D01*
X12129Y3988D01*
X12128Y3985D01*
X12127Y3982D01*
X12126Y3978D01*
X12125Y3974D01*
X12125Y3970D01*
X12125Y3964D01*
X12098D01*
X12098Y3969D01*
X12098Y3974D01*
X12097Y3978D01*
X12096Y3981D01*
X12095Y3984D01*
X12094Y3986D01*
X12092Y3988D01*
X12090Y3989D01*
X12088Y3990D01*
X12086Y3990D01*
X12137Y3992D01*
X12135Y3992D01*
D02*
G37*
G36*
X11951Y3994D02*
X11949Y3991D01*
X11947Y3988D01*
X11945Y3983D01*
X11943Y3978D01*
X11942Y3972D01*
X11941Y3965D01*
X11940Y3949D01*
X11940Y3940D01*
X11890D01*
X11890Y3949D01*
X11889Y3965D01*
X11888Y3972D01*
X11887Y3978D01*
X11885Y3983D01*
X11883Y3988D01*
X11881Y3991D01*
X11879Y3994D01*
X11876Y3996D01*
X11954D01*
X11951Y3994D01*
D02*
G37*
G36*
X12400Y3935D02*
X12400Y3934D01*
X12401Y3933D01*
X12401Y3932D01*
X12402Y3930D01*
X12405Y3927D01*
X12408Y3923D01*
X12410Y3921D01*
X12391Y3902D01*
X12389Y3904D01*
X12382Y3910D01*
X12381Y3911D01*
X12380Y3912D01*
X12379Y3913D01*
X12378Y3913D01*
X12377Y3913D01*
X12399Y3936D01*
X12400Y3935D01*
D02*
G37*
G36*
X12188Y3880D02*
X12188Y3841D01*
X12187Y3843D01*
X12187Y3846D01*
X12185Y3848D01*
X12183Y3849D01*
X12181Y3851D01*
X12178Y3852D01*
X12174Y3853D01*
X12170Y3854D01*
X12166Y3854D01*
X12160Y3854D01*
Y3881D01*
X12188Y3880D01*
D02*
G37*
G36*
X12078Y3651D02*
X12077Y3649D01*
X12077Y3646D01*
X12078Y3643D01*
X12079Y3640D01*
X12081Y3636D01*
X12084Y3632D01*
X12088Y3627D01*
X12098Y3616D01*
X12075Y3601D01*
X12070Y3606D01*
X12060Y3614D01*
X12056Y3617D01*
X12052Y3619D01*
X12048Y3621D01*
X12045Y3622D01*
X12042Y3622D01*
X12039Y3621D01*
X12037Y3620D01*
X12080Y3653D01*
X12078Y3651D01*
D02*
G37*
G36*
X12188Y3576D02*
X12187Y3579D01*
X12186Y3582D01*
X12185Y3584D01*
X12183Y3586D01*
X12180Y3587D01*
X12177Y3589D01*
X12173Y3590D01*
X12168Y3591D01*
X12163Y3591D01*
X12158Y3591D01*
Y3621D01*
X12163Y3621D01*
X12168Y3622D01*
X12173Y3622D01*
X12177Y3624D01*
X12180Y3625D01*
X12183Y3626D01*
X12185Y3628D01*
X12186Y3631D01*
X12187Y3633D01*
X12188Y3636D01*
Y3576D01*
D02*
G37*
G36*
X11862Y3574D02*
X11865Y3572D01*
X11867Y3570D01*
X11870Y3568D01*
X11874Y3567D01*
X11877Y3566D01*
X11881Y3565D01*
X11885Y3564D01*
X11890Y3564D01*
X11894Y3563D01*
X11895Y3537D01*
X11890Y3536D01*
X11885Y3536D01*
X11880Y3535D01*
X11877Y3534D01*
X11874Y3533D01*
X11871Y3532D01*
X11869Y3530D01*
X11868Y3528D01*
X11868Y3526D01*
X11868Y3523D01*
X11860Y3577D01*
X11862Y3574D01*
D02*
G37*
G36*
X12079Y3454D02*
X12080Y3452D01*
X12081Y3450D01*
X12082Y3448D01*
X12085Y3447D01*
X12088Y3446D01*
X12091Y3445D01*
X12096Y3444D01*
X12101Y3444D01*
X12107Y3443D01*
X12100Y3416D01*
X12095Y3416D01*
X12078Y3415D01*
X12075Y3415D01*
X12072Y3414D01*
X12070Y3413D01*
X12068Y3413D01*
X12066Y3412D01*
X12080Y3457D01*
X12079Y3454D01*
D02*
G37*
G36*
X12170Y3394D02*
X12180Y3386D01*
X12184Y3383D01*
X12188Y3381D01*
X12192Y3379D01*
X12195Y3378D01*
X12198Y3378D01*
X12201Y3379D01*
X12203Y3380D01*
X12160Y3347D01*
X12162Y3349D01*
X12163Y3351D01*
X12163Y3354D01*
X12162Y3357D01*
X12161Y3360D01*
X12159Y3364D01*
X12156Y3368D01*
X12152Y3373D01*
X12142Y3384D01*
X12165Y3399D01*
X12170Y3394D01*
D02*
G37*
G36*
X11800Y3300D02*
X11800Y3301D01*
X11800Y3302D01*
X11799Y3303D01*
X11797Y3303D01*
X11795Y3304D01*
X11793Y3304D01*
X11790Y3305D01*
X11784Y3305D01*
X11780Y3305D01*
Y3335D01*
X11784Y3335D01*
X11795Y3336D01*
X11798Y3336D01*
X11800Y3337D01*
X11802Y3338D01*
X11803Y3338D01*
X11804Y3339D01*
X11805Y3340D01*
X11800Y3300D01*
D02*
G37*
G36*
X12366Y3216D02*
X12365Y3216D01*
X12364Y3216D01*
X12355Y3216D01*
X12325Y3217D01*
Y3244D01*
X12366Y3244D01*
Y3216D01*
D02*
G37*
G36*
X12269Y3083D02*
X12265Y3079D01*
X12262Y3074D01*
X12258Y3068D01*
X12256Y3062D01*
X12254Y3055D01*
X12252Y3047D01*
X12251Y3039D01*
X12250Y3030D01*
X12250Y3020D01*
X12190D01*
X12190Y3030D01*
X12189Y3039D01*
X12188Y3047D01*
X12186Y3055D01*
X12184Y3062D01*
X12182Y3068D01*
X12178Y3074D01*
X12175Y3079D01*
X12171Y3083D01*
X12166Y3086D01*
X12274D01*
X12269Y3083D01*
D02*
G37*
G36*
X12564Y3023D02*
X12564Y3016D01*
X12565Y3014D01*
X12565Y3012D01*
X12565Y3011D01*
X12566Y3011D01*
X12566Y3010D01*
X12567Y3010D01*
X12523Y2996D01*
X12523Y2997D01*
X12523Y2998D01*
X12523Y3000D01*
X12524Y3004D01*
X12524Y3026D01*
X12564D01*
X12564Y3023D01*
D02*
G37*
G36*
X11495Y3030D02*
X11507Y3021D01*
X11512Y3017D01*
X11517Y3014D01*
X11521Y3011D01*
X11526Y3010D01*
X11530Y3008D01*
X11533Y3008D01*
X11537Y3008D01*
X11469Y2950D01*
X11470Y2953D01*
X11470Y2957D01*
X11470Y2961D01*
X11468Y2965D01*
X11466Y2969D01*
X11464Y2974D01*
X11461Y2978D01*
X11457Y2983D01*
X11452Y2988D01*
X11447Y2994D01*
X11489Y3036D01*
X11495Y3030D01*
D02*
G37*
D12*
X12380Y3230D02*
Y3341D01*
Y3190D02*
Y3230D01*
X12589Y2940D02*
X12601D01*
X12544Y2985D02*
X12589Y2940D01*
X12544Y2985D02*
Y3026D01*
X12380Y3190D02*
X12544Y3026D01*
X12824Y2920D02*
Y3057D01*
X12541Y3249D02*
X12710Y3080D01*
X12801D01*
X12824Y3057D01*
X11798Y3710D02*
X11802D01*
X11836Y3744D02*
Y3786D01*
X11878Y3828D02*
X12106D01*
X11802Y3710D02*
X11836Y3744D01*
Y3786D02*
X11878Y3828D01*
X12379Y3933D02*
X12400Y3954D01*
X12379Y3933D02*
X12379Y3933D01*
X12106Y3828D02*
X12173Y3761D01*
X12229D01*
X12580Y4060D02*
Y4230D01*
Y4039D02*
Y4060D01*
X12251Y3772D02*
X12301Y3721D01*
X12245Y3777D02*
X12251Y3772D01*
X12229Y3761D02*
X12245Y3777D01*
X12301Y3721D02*
X12540D01*
X12380Y3350D02*
Y3515D01*
X11960Y5063D02*
X11983Y5040D01*
X12400D02*
X12505Y4935D01*
X11960Y5063D02*
Y5187D01*
X11983Y5040D02*
X12400D01*
X12540Y3350D02*
X12541Y3349D01*
Y3249D02*
Y3349D01*
X12540Y3350D02*
Y3721D01*
Y3721D02*
X12580Y3761D01*
Y4039D01*
X12750Y4400D02*
Y4520D01*
X12580Y4230D02*
X12750Y4400D01*
X12295Y4520D02*
Y4620D01*
X12750Y4520D02*
Y4640D01*
X12295Y4480D02*
Y4520D01*
X12750D01*
X12295Y4480D02*
X12295Y4480D01*
X12295Y4420D02*
Y4480D01*
X12296Y4076D02*
Y4209D01*
X11870Y4579D02*
Y4710D01*
X11900Y4620D02*
X12085D01*
X12745Y4852D02*
X12812D01*
X12870Y4910D01*
X12744Y4853D02*
X12745Y4852D01*
X12760Y4989D02*
X12781Y5010D01*
X12698Y5193D02*
X12781Y5110D01*
Y5010D02*
Y5110D01*
X12443Y5193D02*
X12698D01*
X12754Y4935D02*
X12760Y4941D01*
X12409Y5159D02*
X12443Y5193D01*
X12760Y4941D02*
Y4989D01*
X12744Y4935D02*
X12754D01*
X11580Y4940D02*
Y5170D01*
X11620Y5210D01*
X11937D01*
X11580Y4940D02*
X11690D01*
Y4650D02*
X11720Y4620D01*
X11690Y4650D02*
Y4858D01*
X12400Y3954D02*
Y4040D01*
X12420Y4060D01*
X12280D02*
X12296Y4076D01*
X12353Y4876D02*
X12376Y4853D01*
X12576D01*
X12320Y4940D02*
X12328D01*
X12353Y4876D02*
Y4915D01*
X12328Y4940D02*
X12353Y4915D01*
X12062Y4881D02*
Y4915D01*
X12039Y4858D02*
X12062Y4881D01*
X12087Y4940D02*
X12100D01*
X11857Y4858D02*
X12039D01*
X12062Y4915D02*
X12087Y4940D01*
X12100Y5150D02*
Y5270D01*
X12110Y5280D01*
X12345Y5159D02*
X12409D01*
X12505Y4935D02*
X12576D01*
X11937Y5210D02*
X11960Y5187D01*
X11774Y4806D02*
Y4942D01*
X11776Y4940D02*
X11857D01*
X11774Y4942D02*
Y5065D01*
Y4942D02*
X11776Y4940D01*
X12723Y4667D02*
Y4727D01*
Y4667D02*
X12750Y4640D01*
X12660Y4790D02*
X12723Y4727D01*
X12660Y4790D02*
Y5060D01*
X11774Y4806D02*
X11870Y4710D01*
X12576Y4646D02*
Y4853D01*
D13*
X12401Y3841D02*
D03*
X12201Y3601D02*
D03*
X12351Y3841D02*
D03*
X12301D02*
D03*
X12251D02*
D03*
X12201D02*
D03*
X12251Y3601D02*
D03*
X12301D02*
D03*
X12351D02*
D03*
X12401D02*
D03*
D14*
X12020Y3665D02*
D03*
Y3455D02*
D03*
X12220Y3125D02*
D03*
Y3335D02*
D03*
X12100Y5150D02*
D03*
Y4940D02*
D03*
X12320D02*
D03*
Y5150D02*
D03*
D15*
X12055Y3290D02*
D03*
X11845D02*
D03*
X12295Y4620D02*
D03*
X12085D02*
D03*
X11705Y4420D02*
D03*
X11915D02*
D03*
X11705Y4050D02*
D03*
X11915D02*
D03*
X12296Y4241D02*
D03*
X12086D02*
D03*
X12295Y4420D02*
D03*
X12085D02*
D03*
D17*
X12280Y4060D02*
D03*
X12100D02*
D03*
X11720Y4620D02*
D03*
X11900D02*
D03*
X12570Y4640D02*
D03*
X12750D02*
D03*
D18*
X11798Y3530D02*
D03*
Y3710D02*
D03*
D19*
X12580Y4060D02*
D03*
X12420D02*
D03*
X12540Y3350D02*
D03*
X12380D02*
D03*
D31*
X12301Y3721D02*
D03*
D32*
X11857Y4940D02*
D03*
Y4858D02*
D03*
X11690D02*
D03*
Y4940D02*
D03*
X12744Y4935D02*
D03*
Y4853D02*
D03*
X12576D02*
D03*
Y4935D02*
D03*
D33*
X11360Y2730D02*
X13060D01*
X11360Y5380D02*
X13060D01*
Y2730D02*
Y5380D01*
X11360Y2730D02*
Y5380D01*
D34*
X12045Y3430D02*
X12115D01*
X12210Y3335D01*
X12070Y3550D02*
X12150Y3470D01*
X12288D02*
X12304Y3486D01*
X12030Y3665D02*
X12175Y3520D01*
X12150Y3470D02*
X12288D01*
X12175Y3520D02*
X12235D01*
X12304Y3486D02*
Y3566D01*
X12210Y3335D02*
X12220D01*
X12102Y3230D02*
X12380D01*
X12055Y3277D02*
Y3290D01*
Y3277D02*
X12102Y3230D01*
X12020Y3455D02*
X12045Y3430D01*
X12273Y4060D02*
X12280Y4053D01*
X12379Y3933D02*
X12379D01*
X11850Y3550D02*
X12070D01*
X12020Y3665D02*
X12030D01*
X12106Y3893D02*
X12121D01*
X12201Y3841D02*
Y3868D01*
X12121Y3893D02*
X12147Y3868D01*
X12201D01*
X12100Y4060D02*
X12111Y4049D01*
Y3964D02*
Y4049D01*
Y3964D02*
X12127Y3949D01*
X12261D01*
X12235Y3520D02*
X12251Y3536D01*
Y3601D01*
X12301Y3569D02*
Y3601D01*
Y3569D02*
X12304Y3566D01*
X11830Y3530D02*
X11850Y3550D01*
X12251Y3772D02*
Y3815D01*
Y3768D02*
Y3772D01*
X12380Y3341D02*
Y3350D01*
X12379Y3933D02*
X12379D01*
X12367D02*
X12379D01*
X12379Y3933D02*
X12401Y3912D01*
X12379Y3933D02*
Y3933D01*
X12351Y3841D02*
Y3917D01*
X12367Y3933D01*
X12401Y3841D02*
Y3912D01*
X12280Y4053D02*
Y4060D01*
X12261Y3949D02*
X12301Y3909D01*
Y3841D02*
Y3909D01*
X12351Y3553D02*
X12376Y3528D01*
X12351Y3553D02*
Y3601D01*
X12375Y3531D02*
X12386Y3540D01*
X12401Y3555D02*
Y3601D01*
X12385Y3539D02*
X12401Y3555D01*
X12251Y3815D02*
X12251Y3815D01*
Y3841D01*
D35*
X11548Y3180D02*
Y4908D01*
X11580Y4940D01*
X11628Y3312D02*
X11974Y2966D01*
X12030Y2920D02*
X12062D01*
X11983Y2966D02*
X12030Y2920D01*
X11628Y3312D02*
Y3818D01*
X11974Y2966D02*
X11983D01*
X11548Y3180D02*
X11808Y2920D01*
X11468Y3015D02*
Y5168D01*
X11554Y2920D02*
Y2929D01*
X11468Y3015D02*
X11554Y2929D01*
X12220Y3016D02*
Y3125D01*
Y3016D02*
X12316Y2920D01*
X11628Y3818D02*
X11700Y3890D01*
X11468Y5168D02*
X11580Y5280D01*
X12870Y4910D02*
Y5245D01*
X12110Y5280D02*
X12835D01*
X12870Y5245D01*
X11580Y5280D02*
X12110D01*
D36*
X11780Y3320D02*
X11816D01*
X11693Y3407D02*
X11780Y3320D01*
X11845Y3290D02*
Y3291D01*
X11816Y3320D02*
X11845Y3291D01*
X11895Y3620D02*
X11913Y3638D01*
X11711Y3620D02*
X11895D01*
X11913Y3638D02*
Y3699D01*
X11693Y3602D02*
X11711Y3620D01*
X11693Y3407D02*
Y3602D01*
X11999Y4515D02*
X12195D01*
X12158Y3606D02*
X12199D01*
X12140Y3624D02*
X12158Y3606D01*
X12140Y3624D02*
Y3716D01*
X12086Y3770D02*
X12140Y3716D01*
X11913Y3699D02*
X11984Y3770D01*
X12086D01*
X11949Y4465D02*
X11999Y4515D01*
X11915Y4431D02*
X11949Y4465D01*
X11949D01*
X11915Y4420D02*
Y4431D01*
D37*
X11703Y3893D02*
X12106D01*
X11700Y3890D02*
X11703Y3893D01*
X12195Y4298D02*
Y4515D01*
X12296Y4241D02*
Y4248D01*
X12225Y4268D02*
X12276D01*
X12296Y4248D01*
X12195Y4298D02*
X12225Y4268D01*
Y4739D02*
X12295D01*
X12195Y4709D02*
X12225Y4739D01*
X12195Y4515D02*
Y4709D01*
X12273Y4060D02*
X12280D01*
X12295Y4739D02*
X12391D01*
X11886Y4240D02*
X11915Y4269D01*
X11760Y4240D02*
X11886D01*
X11705Y4185D02*
X11760Y4240D01*
X11915Y4269D02*
Y4420D01*
X12312Y4232D02*
X12384D01*
X11705Y4050D02*
Y4185D01*
X11915Y3895D02*
Y4050D01*
X12086Y4074D02*
Y4241D01*
X12065Y4241D02*
Y4400D01*
X12086Y4241D02*
X12095Y4251D01*
X12065Y4400D02*
X12085Y4420D01*
X12384Y4232D02*
X12414Y4203D01*
Y4066D02*
Y4203D01*
Y4066D02*
X12420Y4060D01*
X12280D02*
X12420D01*
X12391Y4739D02*
X12473Y4657D01*
X12553D01*
X12570Y4640D01*
X11705Y4605D02*
X11720Y4620D01*
X11705Y4420D02*
Y4605D01*
X12086Y4074D02*
X12100Y4060D01*
D38*
X12570Y4640D02*
X12576Y4646D01*
D39*
X11774Y5065D02*
D03*
X12660Y5060D02*
D03*
D40*
X11808Y2920D02*
D03*
X12316D02*
D03*
X12570D02*
D03*
X12062D02*
D03*
X11554D02*
D03*
D41*
X12824D02*
D03*
M02*
