G04*
G04 #@! TF.GenerationSoftware,Altium Limited,Altium Designer,23.9.2 (47)*
G04*
G04 Layer_Color=8388736*
%FSLAX42Y42*%
%MOMM*%
G71*
G04*
G04 #@! TF.SameCoordinates,AF22E9CF-F2A8-4DAE-86C8-C1821F7D0B69*
G04*
G04*
G04 #@! TF.FilePolarity,Negative*
G04*
G01*
G75*
G04:AMPARAMS|DCode=21|XSize=1.45mm|YSize=1.05mm|CornerRadius=0.3mm|HoleSize=0mm|Usage=FLASHONLY|Rotation=90.000|XOffset=0mm|YOffset=0mm|HoleType=Round|Shape=RoundedRectangle|*
%AMROUNDEDRECTD21*
21,1,1.45,0.45,0,0,90.0*
21,1,0.85,1.05,0,0,90.0*
1,1,0.60,0.23,0.43*
1,1,0.60,0.23,-0.43*
1,1,0.60,-0.23,-0.43*
1,1,0.60,-0.23,0.43*
%
%ADD21ROUNDEDRECTD21*%
G04:AMPARAMS|DCode=22|XSize=1.55mm|YSize=1.25mm|CornerRadius=0.35mm|HoleSize=0mm|Usage=FLASHONLY|Rotation=90.000|XOffset=0mm|YOffset=0mm|HoleType=Round|Shape=RoundedRectangle|*
%AMROUNDEDRECTD22*
21,1,1.55,0.55,0,0,90.0*
21,1,0.85,1.25,0,0,90.0*
1,1,0.70,0.28,0.43*
1,1,0.70,0.28,-0.43*
1,1,0.70,-0.28,-0.43*
1,1,0.70,-0.28,0.43*
%
%ADD22ROUNDEDRECTD22*%
%ADD23R,0.83X0.62*%
G04:AMPARAMS|DCode=24|XSize=0.95mm|YSize=1.45mm|CornerRadius=0.28mm|HoleSize=0mm|Usage=FLASHONLY|Rotation=0.000|XOffset=0mm|YOffset=0mm|HoleType=Round|Shape=RoundedRectangle|*
%AMROUNDEDRECTD24*
21,1,0.95,0.90,0,0,0.0*
21,1,0.40,1.45,0,0,0.0*
1,1,0.55,0.20,-0.45*
1,1,0.55,-0.20,-0.45*
1,1,0.55,-0.20,0.45*
1,1,0.55,0.20,0.45*
%
%ADD24ROUNDEDRECTD24*%
G04:AMPARAMS|DCode=25|XSize=0.75mm|YSize=1.15mm|CornerRadius=0.23mm|HoleSize=0mm|Usage=FLASHONLY|Rotation=180.000|XOffset=0mm|YOffset=0mm|HoleType=Round|Shape=RoundedRectangle|*
%AMROUNDEDRECTD25*
21,1,0.75,0.70,0,0,180.0*
21,1,0.30,1.15,0,0,180.0*
1,1,0.45,-0.15,0.35*
1,1,0.45,0.15,0.35*
1,1,0.45,0.15,-0.35*
1,1,0.45,-0.15,-0.35*
%
%ADD25ROUNDEDRECTD25*%
G04:AMPARAMS|DCode=26|XSize=1.35mm|YSize=1.05mm|CornerRadius=0.3mm|HoleSize=0mm|Usage=FLASHONLY|Rotation=0.000|XOffset=0mm|YOffset=0mm|HoleType=Round|Shape=RoundedRectangle|*
%AMROUNDEDRECTD26*
21,1,1.35,0.45,0,0,0.0*
21,1,0.75,1.05,0,0,0.0*
1,1,0.60,0.38,-0.23*
1,1,0.60,-0.38,-0.23*
1,1,0.60,-0.38,0.23*
1,1,0.60,0.38,0.23*
%
%ADD26ROUNDEDRECTD26*%
G04:AMPARAMS|DCode=27|XSize=1.35mm|YSize=1.05mm|CornerRadius=0.3mm|HoleSize=0mm|Usage=FLASHONLY|Rotation=270.000|XOffset=0mm|YOffset=0mm|HoleType=Round|Shape=RoundedRectangle|*
%AMROUNDEDRECTD27*
21,1,1.35,0.45,0,0,270.0*
21,1,0.75,1.05,0,0,270.0*
1,1,0.60,-0.23,-0.38*
1,1,0.60,-0.23,0.38*
1,1,0.60,0.23,0.38*
1,1,0.60,0.23,-0.38*
%
%ADD27ROUNDEDRECTD27*%
%ADD28C,1.65*%
%ADD29C,1.95*%
G04:AMPARAMS|DCode=30|XSize=1.95mm|YSize=1.95mm|CornerRadius=0.53mm|HoleSize=0mm|Usage=FLASHONLY|Rotation=180.000|XOffset=0mm|YOffset=0mm|HoleType=Round|Shape=RoundedRectangle|*
%AMROUNDEDRECTD30*
21,1,1.95,0.90,0,0,180.0*
21,1,0.90,1.95,0,0,180.0*
1,1,1.05,-0.45,0.45*
1,1,1.05,0.45,0.45*
1,1,1.05,0.45,-0.45*
1,1,1.05,-0.45,-0.45*
%
%ADD30ROUNDEDRECTD30*%
D21*
X12260Y4240D02*
D03*
X12100D02*
D03*
X12270Y3460D02*
D03*
X12110D02*
D03*
D22*
X12500Y3870D02*
D03*
X12680D02*
D03*
X12110Y4050D02*
D03*
X12290D02*
D03*
X12100Y3260D02*
D03*
X12280D02*
D03*
X11720Y4620D02*
D03*
X11900D02*
D03*
X12570Y4640D02*
D03*
X12750D02*
D03*
D23*
X11857Y4940D02*
D03*
Y4858D02*
D03*
X11690D02*
D03*
Y4940D02*
D03*
X12744Y4935D02*
D03*
Y4853D02*
D03*
X12576D02*
D03*
Y4935D02*
D03*
D24*
X11720Y4410D02*
D03*
X11900D02*
D03*
X12560Y4430D02*
D03*
X12380D02*
D03*
D25*
X12130Y3630D02*
D03*
X12225D02*
D03*
X12320D02*
D03*
Y3870D02*
D03*
X12130D02*
D03*
D26*
X12481Y3366D02*
D03*
Y3156D02*
D03*
X12130Y4405D02*
D03*
Y4615D02*
D03*
X12100Y5150D02*
D03*
Y4940D02*
D03*
X12320D02*
D03*
Y5150D02*
D03*
D27*
X12695Y3630D02*
D03*
X12485D02*
D03*
D28*
X11774Y5065D02*
D03*
X12660Y5060D02*
D03*
D29*
X11808Y2920D02*
D03*
X12316D02*
D03*
X12570D02*
D03*
X12062D02*
D03*
X11554D02*
D03*
D30*
X12824D02*
D03*
M02*
